<?xml version="1.0" encoding="UTF-8"?>
<svg version="1.1" xmlns="http://www.w3.org/2000/svg" width="512" height="512">
<path d="M0 0 C0.33 21.45 0.66 42.9 1 65 C23.42938066 78.95095696 23.42938066 78.95095696 33 75 C40.26 71.7 47.52 68.4 55 65 C55.495 32.825 55.495 32.825 56 0 C60.08521015 1.02130254 62.7352658 2.44135585 66.34765625 4.5703125 C66.95959335 4.9296286 67.57153046 5.2889447 68.20201111 5.65914917 C69.49860921 6.42178124 70.79379151 7.18682482 72.08764648 7.95410156 C74.02865466 9.10493296 75.97381263 10.24844569 77.91992188 11.390625 C84.98035575 15.55036875 84.98035575 15.55036875 86.92268372 16.79399109 C89.07604647 18.10708348 89.07604647 18.10708348 91.86479187 19.17634583 C95.28484146 20.79736878 97.47786149 22.1592636 100 25 C101.56345539 31.20874807 101.28385496 37.25986875 101.07421875 43.62109375 C101.05368483 45.44950165 101.03803501 47.27797035 101.02705383 49.10646057 C100.98518623 53.90360619 100.87726736 58.69704814 100.75531006 63.49273682 C100.64248306 68.3924346 100.59248134 73.29273512 100.53710938 78.19335938 C100.41937476 87.79719436 100.23181274 97.39828845 100 107 C99.14881592 107.4532666 98.29763184 107.9065332 97.4206543 108.37353516 C94.20909675 110.08392013 90.99792778 111.79503357 87.78686523 113.50634766 C86.40708541 114.241567 85.02720557 114.97659869 83.6472168 115.71142578 C81.64344226 116.77845574 79.64004856 117.84619786 77.63671875 118.9140625 C76.65673416 119.43567963 76.65673416 119.43567963 75.6569519 119.96783447 C70.75564297 122.58175309 65.89227398 125.25986216 61.05004883 127.98193359 C59 129 59 129 57 129 C57.33 156.72 57.66 184.44 58 213 C63.94 216.3 69.88 219.6 76 223 C79.84330831 225.2148296 83.6776051 227.43771206 87.5 229.6875 C89.52717181 230.87268998 91.55452257 232.0575739 93.58203125 233.2421875 C96.89961372 235.18315621 100.21586381 237.12632431 103.52880859 239.07519531 C106.5019237 240.8237355 109.47917281 242.56505325 112.45898438 244.30215454 C114.15403155 245.29293715 115.84464459 246.29129332 117.53515625 247.28979492 C118.56898438 247.89154541 119.6028125 248.4932959 120.66796875 249.11328125 C122.03344849 249.91439331 122.03344849 249.91439331 123.42651367 250.73168945 C126.07435007 252.0366425 128.05450365 252.79263282 131 253 C133.28772314 252.14275428 133.28772314 252.14275428 135.44921875 250.640625 C136.2889624 250.10646973 137.12870605 249.57231445 137.99389648 249.02197266 C138.88278564 248.43722168 139.7716748 247.8524707 140.6875 247.25 C142.56766618 246.0546212 144.44787532 244.85930996 146.328125 243.6640625 C149.10285232 241.87571575 151.87390051 240.08187613 154.64257812 238.28417969 C157.06561046 236.7171607 159.50060527 235.17033541 161.9375 233.625 C162.66348389 233.14321289 163.38946777 232.66142578 164.13745117 232.16503906 C164.82299072 231.7315918 165.50853027 231.29814453 166.21484375 230.8515625 C166.80386475 230.46822754 167.39288574 230.08489258 167.99975586 229.68994141 C171.83169921 228.36819456 175.1080519 229.57928524 178.65527344 231.25244141 C179.54762695 231.78015137 180.43998047 232.30786133 181.359375 232.8515625 C182.3800708 233.44831787 183.4007666 234.04507324 184.45239258 234.65991211 C185.54060303 235.30839111 186.62881348 235.95687012 187.75 236.625 C189.48607929 237.64410205 191.22216797 238.66318852 192.95881653 239.68132019 C194.76429567 240.74115345 196.56747781 241.80482444 198.37060547 242.86865234 C203.04578952 245.62113147 207.75349093 248.31607795 212.46020508 251.01416016 C217.65032142 253.99192846 222.82769769 256.99141348 228 260 C228.78439453 260.45584473 229.56878906 260.91168945 230.37695312 261.38134766 C232.27899558 262.4932228 234.17281922 263.61728304 236.0625 264.75 C237.02285156 265.32234375 237.98320312 265.8946875 238.97265625 266.484375 C241 268 241 268 242 271 C242.08770177 272.70283422 242.11765393 274.40892748 242.11352539 276.11401367 C242.11344986 277.15486618 242.11337433 278.19571869 242.11329651 279.26811218 C242.10813522 280.39006485 242.10297394 281.51201752 242.09765625 282.66796875 C242.09553383 284.39289299 242.09553383 284.39289299 242.09336853 286.15266418 C242.08776429 289.83096908 242.07521104 293.50921345 242.0625 297.1875 C242.05748555 299.67903558 242.05292255 302.17057211 242.04882812 304.66210938 C242.03779347 310.77476029 242.02105118 316.88737582 242 323 C238.38360716 321.58716277 235.09649971 320.00554713 231.73828125 318.05078125 C230.71371826 317.45644287 229.68915527 316.86210449 228.63354492 316.24975586 C226.98962769 315.29081421 226.98962769 315.29081421 225.3125 314.3125 C223.60960815 313.32938843 223.60960815 313.32938843 221.87231445 312.32641602 C216.38578939 309.15783208 210.9176114 305.9631355 205.49147034 302.69203186 C203.13087607 301.27124584 200.76246606 299.86380547 198.39315796 298.45761108 C196.70967421 297.45076183 195.03794666 296.4243398 193.36645508 295.39770508 C192.34189209 294.79079834 191.3173291 294.1838916 190.26171875 293.55859375 C189.36412842 293.01517334 188.46653809 292.47175293 187.54174805 291.91186523 C185.02342523 290.7344592 185.02342523 290.7344592 182.47290039 291.6875 C181.65684326 292.120625 180.84078613 292.55375 180 293 C179.21206055 293.37970947 178.42412109 293.75941895 177.61230469 294.15063477 C166.76196527 299.41949888 166.76196527 299.41949888 158.9765625 308.08203125 C157.97379459 312.30137007 158.24078474 316.35457157 158.77148438 320.62548828 C159.23086338 325.3989073 159.05425182 330.2092626 159 335 C159.66829834 335.3717334 160.33659668 335.7434668 161.02514648 336.12646484 C173.14515304 342.87424236 185.23415433 349.65534966 197.1640625 356.734375 C203.06500783 360.23324581 209.03333929 363.61479472 215 367 C213.70371681 370.88884956 212.42490921 371.13248538 208.84765625 373.00390625 C207.76895264 373.5755249 206.69024902 374.14714355 205.57885742 374.73608398 C203.8382605 375.64015991 203.8382605 375.64015991 202.0625 376.5625 C199.68311631 377.81173473 197.30647752 379.06615189 194.9296875 380.3203125 C194.33739853 380.63155563 193.74510956 380.94279877 193.13487244 381.26347351 C189.52857966 383.16548019 185.97196014 385.13410149 182.4453125 387.1796875 C181.22509399 387.88436157 181.22509399 387.88436157 179.98022461 388.60327148 C178.48755769 389.4719143 177.0009847 390.35114269 175.52172852 391.24243164 C172.80713461 392.80893664 170.68459159 393.99570789 167.5078125 394.015625 C163.89762227 392.55355419 160.56506022 390.74661346 157.1875 388.8125 C156.40906738 388.37325195 155.63063477 387.93400391 154.82861328 387.48144531 C150.31086629 384.92082908 145.81685041 382.31921264 141.32421875 379.71484375 C140.35073486 379.15273193 139.37725098 378.59062012 138.37426758 378.01147461 C136.3550001 376.82555561 134.35091513 375.61344258 132.36206055 374.37719727 C127.0363089 371.10723764 122.11867884 368.5912843 116.1328125 366.75 C103.60836948 362.35020653 103.60836948 362.35020653 99.890625 356.95080566 C93.30511423 342.52604586 97.62824714 320.32283196 99 305 C98.34854004 304.62415771 97.69708008 304.24831543 97.02587891 303.86108398 C96.10210449 303.32813721 95.17833008 302.79519043 94.2265625 302.24609375 C93.18685303 301.64627686 92.14714355 301.04645996 91.07592773 300.4284668 C88.74726036 299.08497317 86.4186393 297.74139965 84.09008789 296.39770508 C78.08870082 292.9347526 72.08647456 289.47327607 66.08203125 286.015625 C64.97617676 285.37826416 63.87032227 284.74090332 62.73095703 284.08422852 C60.54428191 282.82490464 58.35646401 281.5675629 56.16748047 280.31225586 C51.3381461 277.53651694 46.53449056 274.73713585 41.80078125 271.80078125 C41.02226807 271.32294189 40.24375488 270.84510254 39.44165039 270.3527832 C38.03464232 269.48431581 36.63580191 268.60239268 35.24780273 267.70385742 C32.38058987 265.94176722 30.39481388 265.00102816 27 264.9921875 C23.26699745 266.24624304 20.07379976 268.05750655 16.75 270.125 C15.23659305 271.04057826 13.72220426 271.95453484 12.20703125 272.8671875 C11.37896973 273.36831055 10.5509082 273.86943359 9.69775391 274.38574219 C5.73712306 276.75566899 1.73849918 279.0568892 -2.26904297 281.34643555 C-4.48481016 282.62711285 -6.68567092 283.93389624 -8.87158203 285.26489258 C-14.49481767 288.64975685 -19.72188564 291.37056991 -26.00390625 293.31640625 C-35.2144459 296.46976158 -35.2144459 296.46976158 -42.12365723 303.05633545 C-48.65265471 317.53717714 -44.37485109 339.64255999 -43 355 C-43.66193359 355.3810791 -44.32386719 355.7621582 -45.00585938 356.15478516 C-57.20679716 363.18103064 -69.39957596 370.22058575 -81.5625 377.3125 C-82.54782715 377.88444092 -83.5331543 378.45638184 -84.54833984 379.0456543 C-89.08987905 381.68747214 -93.60517449 384.3572091 -98.06640625 387.1328125 C-99.23030884 387.84763794 -99.23030884 387.84763794 -100.41772461 388.5769043 C-101.83758607 389.45212694 -103.2493863 390.34063817 -104.65063477 391.24536133 C-107.57624923 393.03779662 -109.42312379 394.04794727 -112.89331055 393.75952148 C-116.01083357 392.99735142 -118.36338245 391.98837792 -121.16796875 390.4453125 C-122.13541016 389.91784424 -123.10285156 389.39037598 -124.09960938 388.84692383 C-125.11861328 388.27868896 -126.13761719 387.7104541 -127.1875 387.125 C-128.23873047 386.54580811 -129.28996094 385.96661621 -130.37304688 385.36987305 C-133.58857008 383.59137785 -136.79524451 381.79781383 -140 380 C-141.47267334 379.17894775 -141.47267334 379.17894775 -142.97509766 378.34130859 C-145.65633307 376.84246695 -148.32992453 375.33111669 -151 373.8125 C-151.81235107 373.35568848 -152.62470215 372.89887695 -153.46166992 372.42822266 C-155.34246744 371.34352009 -157.17743887 370.17993639 -159 369 C-159 368.34 -159 367.68 -159 367 C-158.33170166 366.6282666 -157.66340332 366.2565332 -156.97485352 365.87353516 C-144.85484696 359.12575764 -132.76584567 352.34465034 -120.8359375 345.265625 C-114.93499217 341.76675419 -108.96666071 338.38520528 -103 335 C-102.95219593 332.24329843 -102.9513377 329.50306171 -103.01953125 326.74609375 C-103.00512399 323.98278188 -102.83196551 321.61223411 -102.44921875 318.91015625 C-101.99404546 314.27706643 -101.76771201 310.21022811 -104 306 C-110.77760716 299.42177899 -119.62221981 295.1888901 -128 291 C-130.46660192 292.06238239 -130.46660192 292.06238239 -133.2578125 293.69140625 C-134.89242432 294.6045459 -134.89242432 294.6045459 -136.56005859 295.53613281 C-137.74854745 296.21128047 -138.93685719 296.88674353 -140.125 297.5625 C-141.33778444 298.24494431 -142.55084075 298.9269057 -143.76416016 299.60839844 C-162.89506261 310.3467806 -162.89506261 310.3467806 -181.67431641 321.67675781 C-184 323 -184 323 -186 323 C-185.9992749 322.07268066 -185.9985498 321.14536133 -185.99780273 320.18994141 C-185.99723877 318.88202637 -185.9966748 317.57411133 -185.99609375 316.2265625 C-185.9951622 315.5123111 -185.99423065 314.79805969 -185.99327087 314.06216431 C-185.99053397 310.1122469 -186.00513279 306.1635339 -186.05126953 302.21386719 C-186.09738988 298.10435304 -186.09492288 293.99685443 -186.06713867 289.88720703 C-186.06401308 288.1944515 -186.07737531 286.50159499 -186.10620117 284.80908203 C-186.32713685 270.7950653 -186.32713685 270.7950653 -183.34716797 266.7644043 C-180.97693727 265.14386403 -178.65226977 264.09580934 -176 263 C-174.09208418 261.90755485 -172.19677098 260.79289719 -170.3125 259.66015625 C-168.20970442 258.45853497 -166.10547284 257.25942401 -164 256.0625 C-153.65133772 250.13973683 -143.39263946 244.08833375 -133.18554688 237.92407227 C-131.28631516 236.77732774 -129.38433119 235.63512306 -127.47900391 234.49853516 C-125.95443287 233.57694593 -124.44268622 232.63320265 -122.95458984 231.65380859 C-120.28945399 229.95013197 -118.36417677 229.0156364 -115.1796875 228.87890625 C-110.40035158 230.5640038 -106.37188537 233.20306673 -102.125 235.9375 C-100.74248047 236.80689209 -100.74248047 236.80689209 -99.33203125 237.69384766 C-94.94012215 240.46005182 -90.57903718 243.26945395 -86.2421875 246.12109375 C-85.52144043 246.58845947 -84.80069336 247.0558252 -84.05810547 247.53735352 C-82.71761768 248.40859107 -81.38534611 249.29264547 -80.06298828 250.19116211 C-76.63361399 252.45887798 -76.63361399 252.45887798 -72.65307617 252.79394531 C-69.56280427 251.86916715 -67.09186233 250.54966478 -64.30078125 248.9296875 C-63.18654785 248.28773438 -62.07231445 247.64578125 -60.92431641 246.984375 C-59.72030897 246.28136754 -58.51637189 245.57823956 -57.3125 244.875 C-56.06467225 244.15298543 -54.8164568 243.43164054 -53.56787109 242.7109375 C-50.98886114 241.22085935 -48.41218022 239.72687101 -45.83740234 238.22949219 C-42.18422849 236.10545475 -38.52495729 233.99215201 -34.86328125 231.8828125 C-27.0528098 227.40895152 -27.0528098 227.40895152 -19.30357361 222.83096313 C-16 221 -16 221 -12.40045166 219.58166504 C-5.56941782 216.77574419 -5.56941782 216.77574419 -1.20454025 211.13253784 C0.0746428 205.44418589 -0.24697215 199.63342477 -0.4140625 193.84375 C-0.41774037 191.9718852 -0.41523583 190.09999895 -0.40682983 188.22814941 C-0.4012931 183.32063167 -0.47928809 178.41791971 -0.57513428 173.51147461 C-0.65815975 168.49742698 -0.66159777 163.48338108 -0.671875 158.46875 C-0.70367032 148.64421961 -0.82377784 138.82292753 -1 129 C-1.92588425 128.70144608 -2.85176849 128.40289215 -3.80570984 128.09529114 C-7.22795974 126.92183482 -10.21283743 125.4190213 -13.39453125 123.69921875 C-14.28201302 123.22184013 -14.28201302 123.22184013 -15.18742371 122.7348175 C-17.06487907 121.72347341 -18.93867954 120.70555994 -20.8125 119.6875 C-22.05771443 119.01585264 -23.30315546 118.34462523 -24.54882812 117.67382812 C-31.05863175 114.16225253 -37.53848705 110.59953228 -44 107 C-44.6530955 96.6059545 -45.14821753 86.21687235 -45.45074081 75.80638981 C-45.59609949 70.96904305 -45.79230125 66.14584005 -46.11230469 61.31665039 C-48.06944372 30.99275572 -48.06944372 30.99275572 -42.79806519 23.23000336 C-36.6536614 16.40086255 -28.03493385 12.87006529 -19.65783691 9.57614136 C-14.60904259 7.40064428 -10.19972914 4.54530012 -5.61981201 1.52601624 C-3 0 -3 0 0 0 Z " fill="#4385F4" transform="translate(228,59)"/>
<path d="M0 0 C0.33 21.45 0.66 42.9 1 65 C9.58 68.96 18.16 72.92 27 77 C28 78 28 78 28.12304783 80.49688816 C28.12212604 81.61686664 28.12120424 82.73684511 28.12025452 83.89076233 C28.12231651 85.81125145 28.12231651 85.81125145 28.12442017 87.77053833 C28.12088055 89.20257591 28.11724573 90.63461326 28.11352539 92.06665039 C28.11324353 93.56431578 28.11340124 95.0619813 28.1139679 96.55964661 C28.11425591 100.63798172 28.10835864 104.71628767 28.10139394 108.79461598 C28.09516095 113.05207628 28.09455665 117.30953718 28.09336853 121.56700134 C28.09025505 129.63473187 28.08204144 137.70244891 28.07201904 145.77017349 C28.06085842 154.95260779 28.05534758 164.13504272 28.05032361 173.31748211 C28.03985884 192.2116624 28.02225907 211.10583012 28 230 C27.26711761 230.39628098 26.53423523 230.79256195 25.77914429 231.20085144 C24.31911484 231.99317924 24.31911484 231.99317924 22.82958984 232.80151367 C21.38995377 233.58156013 21.38995377 233.58156013 19.92123413 234.37736511 C14.51025274 237.38296028 9.2654022 240.66866216 4.01171875 243.93945312 C3.17511719 244.45056641 2.33851563 244.96167969 1.4765625 245.48828125 C0.73486816 245.94759033 -0.00682617 246.40689941 -0.77099609 246.88012695 C-3.1806249 248.09074769 -5.34494768 248.58980113 -8 249 C-8 249.66 -8 250.32 -8 251 C-13.75 254 -13.75 254 -16 254 C-16 254.66 -16 255.32 -16 256 C-16.71285156 256.25910156 -17.42570313 256.51820313 -18.16015625 256.78515625 C-21.16914548 258.07235797 -23.70732071 259.63674345 -26.4375 261.4375 C-36.58203125 268 -36.58203125 268 -40 268 C-40 268.66 -40 269.32 -40 270 C-41.65 270.33 -43.3 270.66 -45 271 C-44.97494385 271.69838989 -44.9498877 272.39677979 -44.92407227 273.11633301 C-44.6843612 279.81927417 -44.44887149 286.52235296 -44.21769714 293.22559357 C-44.09881704 296.66870664 -43.97851111 300.11175539 -43.85449219 303.5546875 C-43.23772906 320.70996045 -42.84005595 337.83308221 -43 355 C-43.66193359 355.3810791 -44.32386719 355.7621582 -45.00585938 356.15478516 C-57.20679716 363.18103064 -69.39957596 370.22058575 -81.5625 377.3125 C-82.54782715 377.88444092 -83.5331543 378.45638184 -84.54833984 379.0456543 C-89.08987905 381.68747214 -93.60517449 384.3572091 -98.06640625 387.1328125 C-99.23030884 387.84763794 -99.23030884 387.84763794 -100.41772461 388.5769043 C-101.83758607 389.45212694 -103.2493863 390.34063817 -104.65063477 391.24536133 C-107.57624923 393.03779662 -109.42312379 394.04794727 -112.89331055 393.75952148 C-116.01083357 392.99735142 -118.36338245 391.98837792 -121.16796875 390.4453125 C-122.13541016 389.91784424 -123.10285156 389.39037598 -124.09960938 388.84692383 C-125.11861328 388.27868896 -126.13761719 387.7104541 -127.1875 387.125 C-128.23873047 386.54580811 -129.28996094 385.96661621 -130.37304688 385.36987305 C-133.58857008 383.59137785 -136.79524451 381.79781383 -140 380 C-141.47267334 379.17894775 -141.47267334 379.17894775 -142.97509766 378.34130859 C-145.65633307 376.84246695 -148.32992453 375.33111669 -151 373.8125 C-151.81235107 373.35568848 -152.62470215 372.89887695 -153.46166992 372.42822266 C-155.34246744 371.34352009 -157.17743887 370.17993639 -159 369 C-159 368.34 -159 367.68 -159 367 C-158.33170166 366.6282666 -157.66340332 366.2565332 -156.97485352 365.87353516 C-144.85484696 359.12575764 -132.76584567 352.34465034 -120.8359375 345.265625 C-114.93499217 341.76675419 -108.96666071 338.38520528 -103 335 C-102.95219593 332.24329843 -102.9513377 329.50306171 -103.01953125 326.74609375 C-103.00512399 323.98278188 -102.83196551 321.61223411 -102.44921875 318.91015625 C-101.99404546 314.27706643 -101.76771201 310.21022811 -104 306 C-110.77760716 299.42177899 -119.62221981 295.1888901 -128 291 C-130.46660192 292.06238239 -130.46660192 292.06238239 -133.2578125 293.69140625 C-134.89242432 294.6045459 -134.89242432 294.6045459 -136.56005859 295.53613281 C-137.74854745 296.21128047 -138.93685719 296.88674353 -140.125 297.5625 C-141.33778444 298.24494431 -142.55084075 298.9269057 -143.76416016 299.60839844 C-162.89506261 310.3467806 -162.89506261 310.3467806 -181.67431641 321.67675781 C-184 323 -184 323 -186 323 C-185.9992749 322.07268066 -185.9985498 321.14536133 -185.99780273 320.18994141 C-185.99723877 318.88202637 -185.9966748 317.57411133 -185.99609375 316.2265625 C-185.9951622 315.5123111 -185.99423065 314.79805969 -185.99327087 314.06216431 C-185.99053397 310.1122469 -186.00513279 306.1635339 -186.05126953 302.21386719 C-186.09738988 298.10435304 -186.09492288 293.99685443 -186.06713867 289.88720703 C-186.06401308 288.1944515 -186.07737531 286.50159499 -186.10620117 284.80908203 C-186.32713685 270.7950653 -186.32713685 270.7950653 -183.34716797 266.7644043 C-180.97693727 265.14386403 -178.65226977 264.09580934 -176 263 C-174.09208418 261.90755485 -172.19677098 260.79289719 -170.3125 259.66015625 C-168.20970442 258.45853497 -166.10547284 257.25942401 -164 256.0625 C-153.65133772 250.13973683 -143.39263946 244.08833375 -133.18554688 237.92407227 C-131.28631516 236.77732774 -129.38433119 235.63512306 -127.47900391 234.49853516 C-125.95443287 233.57694593 -124.44268622 232.63320265 -122.95458984 231.65380859 C-120.28945399 229.95013197 -118.36417677 229.0156364 -115.1796875 228.87890625 C-110.40035158 230.5640038 -106.37188537 233.20306673 -102.125 235.9375 C-100.74248047 236.80689209 -100.74248047 236.80689209 -99.33203125 237.69384766 C-94.94012215 240.46005182 -90.57903718 243.26945395 -86.2421875 246.12109375 C-85.52144043 246.58845947 -84.80069336 247.0558252 -84.05810547 247.53735352 C-82.71761768 248.40859107 -81.38534611 249.29264547 -80.06298828 250.19116211 C-76.63361399 252.45887798 -76.63361399 252.45887798 -72.65307617 252.79394531 C-69.56280427 251.86916715 -67.09186233 250.54966478 -64.30078125 248.9296875 C-63.18654785 248.28773438 -62.07231445 247.64578125 -60.92431641 246.984375 C-59.72030897 246.28136754 -58.51637189 245.57823956 -57.3125 244.875 C-56.06467225 244.15298543 -54.8164568 243.43164054 -53.56787109 242.7109375 C-50.98886114 241.22085935 -48.41218022 239.72687101 -45.83740234 238.22949219 C-42.18422849 236.10545475 -38.52495729 233.99215201 -34.86328125 231.8828125 C-27.0528098 227.40895152 -27.0528098 227.40895152 -19.30357361 222.83096313 C-16 221 -16 221 -12.40045166 219.58166504 C-5.56941782 216.77574419 -5.56941782 216.77574419 -1.20454025 211.13253784 C0.0746428 205.44418589 -0.24697215 199.63342477 -0.4140625 193.84375 C-0.41774037 191.9718852 -0.41523583 190.09999895 -0.40682983 188.22814941 C-0.4012931 183.32063167 -0.47928809 178.41791971 -0.57513428 173.51147461 C-0.65815975 168.49742698 -0.66159777 163.48338108 -0.671875 158.46875 C-0.70367032 148.64421961 -0.82377784 138.82292753 -1 129 C-1.92588425 128.70144608 -2.85176849 128.40289215 -3.80570984 128.09529114 C-7.22795974 126.92183482 -10.21283743 125.4190213 -13.39453125 123.69921875 C-14.28201302 123.22184013 -14.28201302 123.22184013 -15.18742371 122.7348175 C-17.06487907 121.72347341 -18.93867954 120.70555994 -20.8125 119.6875 C-22.05771443 119.01585264 -23.30315546 118.34462523 -24.54882812 117.67382812 C-31.05863175 114.16225253 -37.53848705 110.59953228 -44 107 C-44.6530955 96.6059545 -45.14821753 86.21687235 -45.45074081 75.80638981 C-45.59609949 70.96904305 -45.79230125 66.14584005 -46.11230469 61.31665039 C-48.06944372 30.99275572 -48.06944372 30.99275572 -42.79806519 23.23000336 C-36.6536614 16.40086255 -28.03493385 12.87006529 -19.65783691 9.57614136 C-14.60904259 7.40064428 -10.19972914 4.54530012 -5.61981201 1.52601624 C-3 0 -3 0 0 0 Z " fill="#669EF6" transform="translate(228,59)"/>
<path d="M0 0 C2.65527344 1.25244141 2.65527344 1.25244141 5.359375 2.8515625 C6.3800708 3.44831787 7.4007666 4.04507324 8.45239258 4.65991211 C9.54060303 5.30839111 10.62881348 5.95687012 11.75 6.625 C13.48607929 7.64410205 15.22216797 8.66318852 16.95881653 9.68132019 C18.76429567 10.74115345 20.56747781 11.80482444 22.37060547 12.86865234 C27.04578952 15.62113147 31.75349093 18.31607795 36.46020508 21.01416016 C41.65032142 23.99192846 46.82769769 26.99141348 52 30 C52.78439453 30.45584473 53.56878906 30.91168945 54.37695312 31.38134766 C56.27899558 32.4932228 58.17281922 33.61728304 60.0625 34.75 C61.50302734 35.60851562 61.50302734 35.60851562 62.97265625 36.484375 C65 38 65 38 66 41 C66.08770177 42.70283422 66.11765393 44.40892748 66.11352539 46.11401367 C66.11344986 47.15486618 66.11337433 48.19571869 66.11329651 49.26811218 C66.10813522 50.39006485 66.10297394 51.51201752 66.09765625 52.66796875 C66.09553383 54.39289299 66.09553383 54.39289299 66.09336853 56.15266418 C66.08776429 59.83096908 66.07521104 63.50921345 66.0625 67.1875 C66.05748555 69.67903558 66.05292255 72.17057211 66.04882812 74.66210938 C66.03779347 80.77476029 66.02105118 86.88737582 66 93 C62.38360716 91.58716277 59.09649971 90.00554713 55.73828125 88.05078125 C54.71371826 87.45644287 53.68915527 86.86210449 52.63354492 86.24975586 C51.5376001 85.61046143 50.44165527 84.97116699 49.3125 84.3125 C48.17723877 83.65709229 47.04197754 83.00168457 45.87231445 82.32641602 C40.38578939 79.15783208 34.9176114 75.9631355 29.49147034 72.69203186 C27.13087607 71.27124584 24.76246606 69.86380547 22.39315796 68.45761108 C20.70967421 67.45076183 19.03794666 66.4243398 17.36645508 65.39770508 C15.8296106 64.48734497 15.8296106 64.48734497 14.26171875 63.55859375 C13.36412842 63.01517334 12.46653809 62.47175293 11.54174805 61.91186523 C9.02413777 60.74298809 9.02413777 60.74298809 6.44873047 61.63696289 C3.96980545 63.0168072 1.79685738 64.50784761 -0.44140625 66.25 C-13.79613448 76.16368861 -13.79613448 76.16368861 -19.62890625 75.73046875 C-22.77748247 74.10897252 -25.28965382 72.2730605 -28 70 C-29.54607365 69.0558918 -31.1086748 68.13825391 -32.6875 67.25 C-33.48671875 66.75886719 -34.2859375 66.26773438 -35.109375 65.76171875 C-38.11936415 63.92725239 -41.15678379 62.14601775 -44.20068359 60.36865234 C-49.88677958 57.04834962 -55.53439173 53.70518154 -61.0625 50.125 C-65.25259832 47.41489054 -69.48781925 45.12838715 -74 43 C-71.24515395 40.07431694 -68.49954072 37.87840551 -65.0859375 35.765625 C-64.16039062 35.19199219 -63.23484375 34.61835938 -62.28125 34.02734375 C-60.84265625 33.14755859 -60.84265625 33.14755859 -59.375 32.25 C-58.40820312 31.64800781 -57.44140625 31.04601562 -56.4453125 30.42578125 C-49.25969033 26 -49.25969033 26 -47 26 C-47 25.34 -47 24.68 -47 24 C-45.16370701 22.71006249 -43.25893775 21.51737968 -41.33203125 20.3671875 C-40.446045 19.83389328 -40.446045 19.83389328 -39.54216003 19.28982544 C-37.63631697 18.14464089 -35.72464645 17.0096221 -33.8125 15.875 C-31.95581791 14.76414383 -30.10037743 13.65124349 -28.24533081 12.53765869 C-27.0096969 11.79795311 -25.77215488 11.06142579 -24.53274536 10.32806396 C-21.43667458 8.4913782 -18.3853491 6.61470381 -15.38427734 4.62597656 C-14.80562424 4.24901642 -14.22697113 3.87205627 -13.63078308 3.4836731 C-12.04882645 2.44802213 -10.47845116 1.39474202 -8.90893555 0.34033203 C-5.32243444 -1.31219765 -3.74788338 -1.12526053 0 0 Z " fill="#ACC9FA" transform="translate(404,289)"/>
<path d="M0 0 C3.40628981 1.80696727 6.63514754 3.84952975 9.875 5.9375 C11.74210572 7.12122276 13.60929418 8.304815 15.4765625 9.48828125 C16.86536621 10.37507568 16.86536621 10.37507568 18.28222656 11.27978516 C20.80436189 12.87617085 23.34394799 14.43654075 25.8984375 15.98046875 C26.63723145 16.4297876 27.37602539 16.87910645 28.13720703 17.34204102 C29.51756339 18.18023984 30.90123432 19.01301087 32.28857422 19.83959961 C36.88764778 22.66294335 36.88764778 22.66294335 38 26 C39.2375 26.4021875 39.2375 26.4021875 40.5 26.8125 C44.38840309 28.13177962 47.12636171 30.01480862 50.4765625 32.3359375 C54.81217062 35.19502273 59.40904531 37.58009491 64 40 C64 41.32 64 42.64 64 44 C63.30140869 44.40202637 62.60281738 44.80405273 61.88305664 45.21826172 C46.26038822 54.19619803 46.26038822 54.19619803 30.69897461 63.27954102 C29.33148067 64.0842617 27.96124605 64.8843456 26.58813477 65.67944336 C23.51482862 67.46648128 20.52780532 69.29692924 17.6171875 71.33984375 C10.37991287 76.21003984 10.37991287 76.21003984 6.79296875 75.6640625 C4.27970256 74.34914401 2.23408453 72.75341786 0 71 C-1.97612147 69.66271991 -3.97312052 68.36023667 -5.97143555 67.05639648 C-9.00397145 65.07117421 -12.00074249 63.03506933 -15 61 C-28.14415733 67.15553847 -40.51095111 74.63212729 -53 82 C-56.62102217 84.131873 -60.24637239 86.25610363 -63.875 88.375 C-64.67123779 88.84518555 -65.46747559 89.31537109 -66.2878418 89.79980469 C-71.77276273 93 -71.77276273 93 -74 93 C-73.9992749 92.07268066 -73.9985498 91.14536133 -73.99780273 90.18994141 C-73.99723877 88.88202637 -73.9966748 87.57411133 -73.99609375 86.2265625 C-73.9951622 85.5123111 -73.99423065 84.79805969 -73.99327087 84.06216431 C-73.99053397 80.1122469 -74.00513279 76.1635339 -74.05126953 72.21386719 C-74.09738988 68.10435304 -74.09492288 63.99685443 -74.06713867 59.88720703 C-74.06401308 58.1944515 -74.07737531 56.50159499 -74.10620117 54.80908203 C-74.32713685 40.7950653 -74.32713685 40.7950653 -71.34716797 36.7644043 C-68.97693727 35.14386403 -66.65226977 34.09580934 -64 33 C-62.09208418 31.90755485 -60.19677098 30.79289719 -58.3125 29.66015625 C-56.20970442 28.45853497 -54.10547284 27.25942401 -52 26.0625 C-41.65133772 20.13973683 -31.39263946 14.08833375 -21.18554688 7.92407227 C-19.28631516 6.77732774 -17.38433119 5.63512306 -15.47900391 4.49853516 C-13.95443287 3.57694593 -12.44268622 2.63320265 -10.95458984 1.65380859 C-6.84491213 -0.9732852 -4.63397611 -1.63384661 0 0 Z " fill="#ACCAFA" transform="translate(116,289)"/>
<path d="M0 0 C1.92183055 0.95344853 3.84280953 1.90861365 5.76342773 2.86450195 C6.83326401 3.39622513 7.90310028 3.9279483 9.00535583 4.4757843 C12.47137432 6.23992037 15.7517203 8.14736519 19.0625 10.1875 C20.3298859 10.96101877 21.59816154 11.73308109 22.8671875 12.50390625 C23.52944336 12.90625488 24.19169922 13.30860352 24.87402344 13.72314453 C29.5306785 16.5199183 34.24584968 19.21709487 38.95141602 21.93041992 C40.46719247 22.80445677 41.97437916 23.69353964 43.47314453 24.59643555 C46.06521006 26.09698269 46.06521006 26.09698269 49.22607422 27.35083008 C52.69890985 28.94632569 55.25843791 30.32628592 58 33 C59.47463865 38.20860336 59.14488432 43.11711679 58.75 48.4375 C58.6897335 49.85068457 58.63499307 51.26411624 58.5859375 52.67773438 C58.45437893 56.12366597 58.2478527 59.56024943 58 63 C58.66829834 63.3717334 59.33659668 63.7434668 60.02514648 64.12646484 C72.14515304 70.87424236 84.23415433 77.65534966 96.1640625 84.734375 C102.06500783 88.23324581 108.03333929 91.61479472 114 95 C112.70371681 98.88884956 111.42490921 99.13248538 107.84765625 101.00390625 C106.76895264 101.5755249 105.69024902 102.14714355 104.57885742 102.73608398 C103.41845947 103.33880127 102.25806152 103.94151855 101.0625 104.5625 C98.68311631 105.81173473 96.30647752 107.06615189 93.9296875 108.3203125 C93.04125404 108.7871772 93.04125404 108.7871772 92.13487244 109.26347351 C88.52857966 111.16548019 84.97196014 113.13410149 81.4453125 115.1796875 C80.6318335 115.64947021 79.81835449 116.11925293 78.98022461 116.60327148 C77.48755769 117.4719143 76.0009847 118.35114269 74.52172852 119.24243164 C71.80713461 120.80893664 69.68459159 121.99570789 66.5078125 122.015625 C62.89762227 120.55355419 59.56506022 118.74661346 56.1875 116.8125 C55.40906738 116.37325195 54.63063477 115.93400391 53.82861328 115.48144531 C49.31086629 112.92082908 44.81685041 110.31921264 40.32421875 107.71484375 C39.35073486 107.15063721 38.37725098 106.58643066 37.37426758 106.00512695 C35.36252109 104.82788271 33.35846244 103.63740865 31.36206055 102.43432617 C26.05589008 99.25350515 20.77519252 96.38035258 15.1328125 93.8359375 C13.46726318 93.02721191 13.46726318 93.02721191 11.76806641 92.20214844 C8.54940011 90.59784724 8.54940011 90.59784724 5.31396484 89.37597656 C1.77664266 87.59751432 0.1329259 86.36560536 -2 83 C-3.38650581 76.31607295 -2.64243454 69.3355274 -2.2121582 62.57781982 C-1.91734658 57.60613903 -1.80086964 52.63416864 -1.6697998 47.65591431 C-1.48976825 41.10242786 -1.23940622 34.55153592 -1 28 C-0.90278389 25.26695727 -0.80684723 22.5338701 -0.7109375 19.80078125 C-0.47836128 13.20035811 -0.24111784 6.60011635 0 0 Z " fill="#669EF5" transform="translate(329,331)"/>
<path d="M0 0 C0.33 21.45 0.66 42.9 1 65 C9.58 68.96 18.16 72.92 27 77 C28 78 28 78 28.12025452 80.62586975 C28.11803391 81.79613205 28.11581329 82.96639435 28.11352539 84.17211914 C28.11367142 84.81600082 28.11381744 85.45988251 28.1139679 86.12327576 C28.11326885 88.26060303 28.10547691 90.39784413 28.09765625 92.53515625 C28.09579204 94.01346285 28.09436815 95.49177007 28.09336853 96.97007751 C28.08954359 100.86798802 28.07971352 104.76586149 28.06866455 108.66375732 C28.05844992 112.63846333 28.0538708 116.61317529 28.04882812 120.58789062 C28.03809122 128.391944 28.02101509 136.19596682 28 144 C25.06476171 143.30705697 22.6757052 142.42959556 20.015625 140.99609375 C18.87347534 140.38640747 18.87347534 140.38640747 17.70825195 139.7644043 C16.89702881 139.32652588 16.08580566 138.88864746 15.25 138.4375 C9.31029384 135.26706861 3.35742412 132.15227389 -2.6875 129.1875 C-16.70408459 122.2745648 -30.34581631 114.59693827 -44 107 C-44.6530955 96.6059545 -45.14821753 86.21687235 -45.45074081 75.80638981 C-45.59609949 70.96904305 -45.79230125 66.14584005 -46.11230469 61.31665039 C-48.06944372 30.99275572 -48.06944372 30.99275572 -42.79806519 23.23000336 C-36.6536614 16.40086255 -28.03493385 12.87006529 -19.65783691 9.57614136 C-14.60904259 7.40064428 -10.19972914 4.54530012 -5.61981201 1.52601624 C-3 0 -3 0 0 0 Z " fill="#AECBFB" transform="translate(228,59)"/>
<path d="M0 0 C4.08521015 1.02130254 6.7352658 2.44135585 10.34765625 4.5703125 C10.95959335 4.9296286 11.57153046 5.2889447 12.20201111 5.65914917 C13.49860921 6.42178124 14.79379151 7.18682482 16.08764648 7.95410156 C18.02865466 9.10493296 19.97381263 10.24844569 21.91992188 11.390625 C28.98035575 15.55036875 28.98035575 15.55036875 30.92268372 16.79399109 C33.07604647 18.10708348 33.07604647 18.10708348 35.86479187 19.17634583 C39.28484146 20.79736878 41.47786149 22.1592636 44 25 C45.56345539 31.20874807 45.28385496 37.25986875 45.07421875 43.62109375 C45.05368483 45.44950165 45.03803501 47.27797035 45.02705383 49.10646057 C44.98518623 53.90360619 44.87726736 58.69704814 44.75531006 63.49273682 C44.64248306 68.3924346 44.59248134 73.29273512 44.53710938 78.19335938 C44.41937476 87.79719436 44.23181274 97.39828845 44 107 C39.98521549 109.15296207 35.96903134 111.30328448 31.95166016 113.45141602 C30.59191972 114.17892351 29.23253083 114.90708855 27.87353516 115.63598633 C19.65407052 120.04383395 11.39929433 124.35051136 3.03540039 128.47851562 C-0.71203867 130.35690702 -4.38338965 132.35695266 -8.0546875 134.37890625 C-11.71538742 136.39374772 -15.38490394 138.39118911 -19.0625 140.375 C-19.71855225 140.73327881 -20.37460449 141.09155762 -21.05053711 141.46069336 C-25.77152776 144 -25.77152776 144 -28 144 C-28 122.22 -28 100.44 -28 78 C-19.0656717 73.53283585 -10.09354397 69.13342908 -1 65 C-0.67 43.55 -0.34 22.1 0 0 Z " fill="#659DF5" transform="translate(284,59)"/>
<path d="M0 0 C-1.08336479 3.49084212 -2.1047123 4.05521194 -5.4375 5.8125 C-9 7 -9 7 -12 6 C-10.37829621 4.99466333 -8.75252763 3.99588093 -7.125 3 C-5.76761719 2.1646875 -5.76761719 2.1646875 -4.3828125 1.3125 C-2 0 -2 0 0 0 Z " fill="#95BBF5" transform="translate(73,311)"/>
<path d="M0 0 C2.31 0.33 4.62 0.66 7 1 C7.66 2.65 8.32 4.3 9 6 C5.06326356 4.68775452 2.77280706 3.08089673 0 0 Z " fill="#91B1F2" transform="translate(104,351)"/>
<path d="M0 0 C0.66 0.33 1.32 0.66 2 1 C0.35 2.65 -1.3 4.3 -3 6 C-3.99 5.34 -4.98 4.68 -6 4 C-4.02 2.68 -2.04 1.36 0 0 Z " fill="#9EC6FA" transform="translate(370,305)"/>
</svg>
