<svg width="81" height="80" viewBox="0 0 81 80" fill="none" xmlns="http://www.w3.org/2000/svg">
    <path d="M68.6084 46.4207C68.1896 45.9179 67.6028 45.5839 66.9566 45.4805C66.3104 45.3771 65.6486 45.5113 65.0938 45.8584L40.4919 63.9233V64.6965C40.8468 64.6544 41.2067 64.688 41.5477 64.7951C41.8887 64.9022 42.2032 65.0803 42.4704 65.3177C42.7376 65.5551 42.9514 65.8465 43.0979 66.1725C43.2443 66.4986 43.3201 66.8519 43.3201 67.2094C43.3201 67.5668 43.2443 67.9202 43.0979 68.2462C42.9514 68.5723 42.7376 68.8636 42.4704 69.101C42.2032 69.3384 41.8887 69.5165 41.5477 69.6236C41.2067 69.7307 40.8468 69.7643 40.4919 69.7223C41.0626 69.7249 41.6184 69.5396 42.0734 69.1951L68.1164 49.9704C68.6238 49.545 68.9551 48.9462 69.046 48.2903C69.1369 47.6344 68.981 46.9681 68.6084 46.4207Z" fill="#669DF6"/>
    <path d="M40.4919 69.7223C39.8766 69.6494 39.3095 69.3533 38.8979 68.8902C38.4864 68.427 38.2591 67.8289 38.2591 67.2094C38.2591 66.5898 38.4864 65.9918 38.8979 65.5286C39.3095 65.0654 39.8766 64.7694 40.4919 64.6965V63.9233L15.8899 45.8584C15.3374 45.5038 14.6736 45.3651 14.0253 45.4689C13.377 45.5726 12.7897 45.9114 12.3753 46.4207C12.0048 46.9683 11.8567 47.6364 11.9611 48.2893C12.0656 48.9421 12.4148 49.5307 12.9377 49.9353L38.9806 69.16C39.4249 69.4995 39.9679 69.6846 40.527 69.6871L40.4919 69.7223Z" fill="#AECBFA"/>
    <path d="M40.4919 62.0605C39.4701 62.0605 38.4712 62.3635 37.6216 62.9312C36.772 63.4989 36.1098 64.3058 35.7187 65.2498C35.3277 66.1939 35.2254 67.2327 35.4247 68.2349C35.6241 69.237 36.1161 70.1576 36.8387 70.8801C37.5612 71.6027 38.4818 72.0947 39.484 72.2941C40.4861 72.4934 41.5249 72.3911 42.469 72.0001C43.413 71.6091 44.2199 70.9469 44.7876 70.0973C45.3553 69.2476 45.6583 68.2488 45.6583 67.2269C45.6583 65.8567 45.114 64.5426 44.1451 63.5737C43.1762 62.6049 41.8621 62.0605 40.4919 62.0605ZM40.4919 69.7223C39.9899 69.7222 39.4993 69.5729 39.0824 69.2933C38.6656 69.0136 38.3413 68.6163 38.1508 68.1519C37.9604 67.6874 37.9124 67.1769 38.0129 66.6851C38.1134 66.1933 38.3579 65.7425 38.7154 65.39C39.0728 65.0376 39.5269 64.7994 40.0201 64.7057C40.5133 64.6121 41.0231 64.6672 41.4849 64.8642C41.9466 65.0611 42.3393 65.3909 42.6131 65.8116C42.8869 66.2324 43.0293 66.725 43.0224 67.2269C43.0224 67.5576 42.9567 67.885 42.8291 68.1901C42.7015 68.4951 42.5146 68.7718 42.2791 69.004C42.0437 69.2361 41.7644 69.4192 41.4576 69.5425C41.1508 69.6658 40.8225 69.7269 40.4919 69.7223Z" fill="#4285F4"/>
    <path d="M19.4045 19.0774C18.7082 19.0683 18.043 18.7876 17.5507 18.2953C17.0583 17.8029 16.7777 17.1377 16.7686 16.4415V9.83408C16.7254 9.45997 16.7619 9.08097 16.8756 8.72195C16.9892 8.36294 17.1775 8.03201 17.4281 7.75089C17.6787 7.46977 17.9859 7.24481 18.3295 7.09078C18.6731 6.93675 19.0455 6.85712 19.4221 6.85712C19.7986 6.85712 20.171 6.93675 20.5146 7.09078C20.8582 7.24481 21.1654 7.46977 21.416 7.75089C21.6666 8.03201 21.8549 8.36294 21.9685 8.72195C22.0822 9.08097 22.1187 9.45997 22.0755 9.83408V16.4415C22.0663 17.1438 21.7808 17.8142 21.2809 18.3075C20.781 18.8009 20.1068 19.0774 19.4045 19.0774Z" fill="#AECBFA"/>
    <path d="M19.3342 42.4493C20.8094 42.4493 22.0053 41.2534 22.0053 39.7782C22.0053 38.303 20.8094 37.1071 19.3342 37.1071C17.859 37.1071 16.6631 38.303 16.6631 39.7782C16.6631 41.2534 17.859 42.4493 19.3342 42.4493Z" fill="#AECBFA"/>
    <path d="M19.3342 34.6821C20.8094 34.6821 22.0053 33.4862 22.0053 32.011C22.0053 30.5358 20.8094 29.3399 19.3342 29.3399C17.859 29.3399 16.6631 30.5358 16.6631 32.011C16.6631 33.4862 17.859 34.6821 19.3342 34.6821Z" fill="#AECBFA"/>
    <path d="M19.3342 26.8797C20.8094 26.8797 22.0053 25.6838 22.0053 24.2087C22.0053 22.7335 20.8094 21.5376 19.3342 21.5376C17.859 21.5376 16.6631 22.7335 16.6631 24.2087C16.6631 25.6838 17.859 26.8797 19.3342 26.8797Z" fill="#AECBFA"/>
    <path d="M61.5793 26.8094C60.877 26.8002 60.2066 26.5147 59.7132 26.0148C59.2199 25.5149 58.9433 24.8407 58.9434 24.1384V17.531C58.9434 16.8319 59.2211 16.1614 59.7154 15.6671C60.2097 15.1728 60.8802 14.8951 61.5793 14.8951C62.2784 14.8951 62.9488 15.1728 63.4432 15.6671C63.9375 16.1614 64.2152 16.8319 64.2152 17.531V24.1384C64.2199 24.4875 64.1551 24.834 64.0247 25.1579C63.8944 25.4818 63.7009 25.7765 63.4557 26.025C63.2105 26.2735 62.9183 26.4708 62.5962 26.6055C62.2741 26.7401 61.9284 26.8095 61.5793 26.8094Z" fill="#4285F4"/>
    <path d="M61.6496 42.4844C63.1248 42.4844 64.3206 41.2885 64.3206 39.8133C64.3206 38.3381 63.1248 37.1423 61.6496 37.1423C60.1744 37.1423 58.9785 38.3381 58.9785 39.8133C58.9785 41.2885 60.1744 42.4844 61.6496 42.4844Z" fill="#4285F4"/>
    <path d="M61.6496 34.5766C63.1248 34.5766 64.3206 33.3807 64.3206 31.9056C64.3206 30.4304 63.1248 29.2345 61.6496 29.2345C60.1744 29.2345 58.9785 30.4304 58.9785 31.9056C58.9785 33.3807 60.1744 34.5766 61.6496 34.5766Z" fill="#4285F4"/>
    <path d="M61.6496 12.5051C63.1248 12.5051 64.3206 11.3093 64.3206 9.83408C64.3206 8.35888 63.1248 7.16301 61.6496 7.16301C60.1744 7.16301 58.9785 8.35888 58.9785 9.83408C58.9785 11.3093 60.1744 12.5051 61.6496 12.5051Z" fill="#4285F4"/>
    <path d="M40.4919 50.3219C39.7956 50.3128 39.1304 50.0321 38.6381 49.5398C38.1457 49.0474 37.8651 48.3822 37.856 47.686V40.9731C37.931 40.322 38.2429 39.7212 38.7322 39.2851C39.2214 38.8489 39.854 38.608 40.5095 38.608C41.1649 38.608 41.7975 38.8489 42.2867 39.2851C42.776 39.7212 43.0879 40.322 43.1629 40.9731V47.6157C43.1676 47.9694 43.1019 48.3205 42.9698 48.6486C42.8377 48.9768 42.6416 49.2754 42.3931 49.5272C42.1446 49.7789 41.8486 49.9788 41.5222 50.1152C41.1959 50.2517 40.8456 50.3219 40.4919 50.3219Z" fill="#669DF6"/>
    <path d="M40.4919 58.0891C41.9671 58.0891 43.1629 56.8932 43.1629 55.418C43.1629 53.9428 41.9671 52.7469 40.4919 52.7469C39.0167 52.7469 37.8208 53.9428 37.8208 55.418C37.8208 56.8932 39.0167 58.0891 40.4919 58.0891Z" fill="#669DF6"/>
    <path d="M40.4919 35.9122C41.9671 35.9122 43.1629 34.7163 43.1629 33.2411C43.1629 31.7659 41.9671 30.57 40.4919 30.57C39.0167 30.57 37.8208 31.7659 37.8208 33.2411C37.8208 34.7163 39.0167 35.9122 40.4919 35.9122Z" fill="#669DF6"/>
    <path d="M40.4919 28.1098C41.9671 28.1098 43.1629 26.9139 43.1629 25.4388C43.1629 23.9636 41.9671 22.7677 40.4919 22.7677C39.0167 22.7677 37.8208 23.9636 37.8208 25.4388C37.8208 26.9139 39.0167 28.1098 40.4919 28.1098Z" fill="#669DF6"/>
    <path d="M51.0356 34.6469C50.3393 34.6378 49.6741 34.3572 49.1818 33.8648C48.6894 33.3724 48.4088 32.7073 48.3997 32.011V25.4036C48.3565 25.0295 48.393 24.6505 48.5067 24.2915C48.6203 23.9325 48.8086 23.6015 49.0592 23.3204C49.3098 23.0393 49.617 22.8143 49.9606 22.6603C50.3042 22.5063 50.6766 22.4266 51.0532 22.4266C51.4297 22.4266 51.8021 22.5063 52.1457 22.6603C52.4893 22.8143 52.7965 23.0393 53.0471 23.3204C53.2977 23.6015 53.486 23.9325 53.5996 24.2915C53.7133 24.6505 53.7498 25.0295 53.7066 25.4036V32.011C53.6974 32.7133 53.4119 33.3837 52.912 33.877C52.4121 34.3704 51.7379 34.647 51.0356 34.6469Z" fill="#4285F4"/>
    <path d="M51.0707 20.2723C52.5459 20.2723 53.7418 19.0765 53.7418 17.6013C53.7418 16.1261 52.5459 14.9302 51.0707 14.9302C49.5955 14.9302 48.3997 16.1261 48.3997 17.6013C48.3997 19.0765 49.5955 20.2723 51.0707 20.2723Z" fill="#4285F4"/>
    <path d="M51.0707 50.1461C52.5459 50.1461 53.7418 48.9503 53.7418 47.4751C53.7418 45.9999 52.5459 44.804 51.0707 44.804C49.5955 44.804 48.3997 45.9999 48.3997 47.4751C48.3997 48.9503 49.5955 50.1461 51.0707 50.1461Z" fill="#4285F4"/>
    <path d="M51.0707 42.3438C52.5459 42.3438 53.7418 41.1479 53.7418 39.6727C53.7418 38.1976 52.5459 37.0017 51.0707 37.0017C49.5955 37.0017 48.3997 38.1976 48.3997 39.6727C48.3997 41.1479 49.5955 42.3438 51.0707 42.3438Z" fill="#4285F4"/>
    <path d="M29.913 50.1461C31.3882 50.1461 32.5841 48.9503 32.5841 47.4751C32.5841 45.9999 31.3882 44.804 29.913 44.804C28.4378 44.804 27.242 45.9999 27.242 47.4751C27.242 48.9503 28.4378 50.1461 29.913 50.1461Z" fill="#AECBFA"/>
    <path d="M29.913 28.1098C31.3882 28.1098 32.5841 26.9139 32.5841 25.4388C32.5841 23.9636 31.3882 22.7677 29.913 22.7677C28.4378 22.7677 27.242 23.9636 27.242 25.4388C27.242 26.9139 28.4378 28.1098 29.913 28.1098Z" fill="#AECBFA"/>
    <path d="M29.913 20.2723C31.3882 20.2723 32.5841 19.0765 32.5841 17.6013C32.5841 16.1261 31.3882 14.9302 29.913 14.9302C28.4378 14.9302 27.242 16.1261 27.242 17.6013C27.242 19.0765 28.4378 20.2723 29.913 20.2723Z" fill="#AECBFA"/>
    <path d="M29.9482 42.3438C29.2577 42.3444 28.5938 42.0775 28.0958 41.5991C27.5978 41.1208 27.3044 40.4682 27.2771 39.7782V33.1005C27.2771 32.4014 27.5548 31.731 28.0492 31.2366C28.5435 30.7423 29.2139 30.4646 29.913 30.4646C30.6121 30.4646 31.2826 30.7423 31.7769 31.2366C32.2712 31.731 32.549 32.4014 32.549 33.1005V39.7782C32.5309 40.459 32.25 41.1063 31.7651 41.5846C31.2803 42.0629 30.6292 42.335 29.9482 42.3438Z" fill="#AECBFA"/>
</svg>
