<svg version="1.1" id="Layer_1" xmlns="http://www.w3.org/2000/svg" xmlns:xlink="http://www.w3.org/1999/xlink" x="0px" y="0px"
	 width="100%" viewBox="0 0 424 471" enable-background="new 0 0 424 471" xml:space="preserve">
<path fill="#FEFFFF" opacity="1.000000" stroke="none" 
	d="
M222.000000,472.000000 
	C148.020523,472.000000 74.541031,472.000000 1.030774,472.000000 
	C1.030774,315.064331 1.030774,158.128677 1.030774,1.096509 
	C142.229477,1.096509 283.459045,1.096509 424.844299,1.096509 
	C424.844299,157.999878 424.844299,314.999908 424.844299,472.000000 
	C357.461975,472.000000 289.980988,472.000000 222.000000,472.000000 
M210.759781,254.902023 
	C236.755508,239.491730 262.758331,224.093369 288.736908,208.654205 
	C291.592010,206.957413 295.464722,206.050232 294.754425,201.284973 
	C294.244537,197.864334 294.425995,194.283554 293.479828,191.011063 
	C293.058136,189.552429 290.621887,188.676224 288.905823,186.919052 
	C287.995819,186.207230 287.146423,185.396164 286.166931,184.798126 
	C262.765167,170.509964 239.321701,156.289825 215.961212,141.934616 
	C211.617569,139.265411 207.933197,140.102341 203.917252,142.584061 
	C188.937119,151.841278 173.825867,160.886307 158.840790,170.135666 
	C149.829025,175.698059 140.959702,181.491241 131.325226,187.225052 
	C123.860214,192.052429 123.722176,203.700027 131.055893,208.062546 
	C142.639404,214.953110 154.182709,221.911560 165.785583,228.769257 
	C180.521667,237.478836 195.300247,246.116486 210.759781,254.902023 
M209.363419,318.180084 
	C207.846176,317.535675 206.229843,317.057739 204.826416,316.222168 
	C180.555878,301.771393 156.313828,287.272827 132.056702,272.799561 
	C130.323959,271.765686 128.522812,270.846497 126.117531,269.524445 
	C126.117531,274.456177 126.246490,278.277863 126.086510,282.087463 
	C125.861420,287.447662 128.018112,291.092346 132.690521,293.915070 
	C156.154449,308.090302 179.469772,322.511383 202.904648,336.735107 
	C205.065582,338.046722 207.701233,338.576141 210.797913,339.629578 
	C213.564392,338.214050 216.432190,336.965363 219.081512,335.356873 
	C242.558777,321.102753 266.048798,306.867584 289.370026,292.361481 
	C291.781738,290.861359 294.271790,287.826019 294.710663,285.170135 
	C295.555176,280.059296 294.956726,274.710083 294.956726,268.789581 
	C293.180969,269.753052 292.033081,270.317657 290.942047,270.976410 
	C270.280151,283.451263 249.670532,296.013672 228.940201,308.373688 
	C222.832275,312.015442 216.386688,315.090912 209.363419,318.180084 
M209.409637,275.236237 
	C207.887482,274.590698 206.267014,274.110962 204.857819,273.274994 
	C181.558578,259.453125 158.289810,245.579910 135.001968,231.738785 
	C132.276123,230.118698 129.477966,228.620285 126.117035,226.730103 
	C126.117035,232.733093 126.287254,237.723129 126.055946,242.694489 
	C125.906891,245.898102 126.938538,247.806808 129.799332,249.477310 
	C145.153030,258.442749 160.345032,267.684509 175.649948,276.734253 
	C187.076050,283.490509 198.588715,290.100342 210.800110,296.979156 
	C211.891953,296.693756 213.123093,296.642792 214.055344,296.088837 
	C240.057922,280.637726 266.039673,265.151367 291.975555,249.588654 
	C293.098999,248.914566 294.456055,247.493042 294.508881,246.363754 
	C294.769745,240.789536 294.627563,235.196457 294.627563,228.676010 
	C291.743042,229.811951 289.517700,230.379059 287.607422,231.488541 
	C269.212097,242.172455 250.919037,253.033157 232.487976,263.654541 
	C225.171707,267.870758 217.582962,271.614136 209.409637,275.236237 
M378.668304,121.178024 
	C379.058411,115.849007 379.448486,110.519997 379.855591,104.958458 
	C378.650146,105.141945 378.091980,105.078018 377.722412,105.311974 
	C376.744080,105.931282 375.791351,106.616554 374.926392,107.385765 
	C360.190613,120.490990 352.438141,136.981796 352.299408,156.628616 
	C352.038300,193.602188 352.302216,230.579346 352.100891,267.553680 
	C352.080139,271.368286 350.388794,275.173798 348.963501,279.355713 
	C347.818726,280.303040 346.773438,281.415558 345.514648,282.173615 
	C312.197113,302.237000 278.852173,322.254761 245.528137,342.307343 
	C240.940231,345.068054 236.437408,347.970154 231.092087,351.308350 
	C238.782394,355.632721 245.515747,359.215363 252.033173,363.155212 
	C256.398773,365.794220 260.260834,365.607086 264.574677,362.996948 
	C295.005981,344.584412 325.567322,326.386017 355.942505,307.881897 
	C362.543060,303.860901 369.559845,299.779205 374.624786,294.143555 
	C383.834808,283.895691 379.683350,271.007904 379.091125,258.400024 
	C378.830444,257.910767 378.569763,257.421509 378.327148,256.487976 
	C378.327148,256.487976 378.246124,256.050812 378.649872,255.334793 
	C378.690704,253.677643 378.772491,252.020340 378.766418,250.363358 
	C378.630585,213.343567 378.484039,176.323792 378.342499,139.304016 
	C378.321655,133.852814 378.315796,128.401550 378.493439,122.506874 
	C378.493439,122.506874 378.345612,122.047470 378.668304,121.178024 
M71.626587,195.724930 
	C72.288986,195.223404 72.908051,194.647888 73.619995,194.230988 
	C107.154930,174.592834 140.702332,154.975983 174.235260,135.334412 
	C179.270813,132.384903 184.242996,129.327179 190.148117,125.776093 
	C182.918549,121.508575 176.568924,118.215355 170.730377,114.182281 
	C165.224274,110.378845 160.577118,111.118309 155.187500,114.417221 
	C139.606247,123.954285 123.810822,133.141830 108.086075,142.443954 
	C89.500427,153.438446 70.896301,164.401688 52.310242,175.395508 
	C47.446262,178.272598 42.731266,181.864532 42.423233,187.771591 
	C41.933331,197.166321 42.540329,206.618256 42.742458,216.974869 
	C42.813850,219.805450 42.946609,222.636002 42.947453,225.466599 
	C42.960548,269.454437 42.913639,313.442413 43.069702,357.429688 
	C43.078503,359.908447 44.724125,362.381409 45.607922,364.857056 
	C48.065937,363.561768 51.085663,362.796906 52.890980,360.885254 
	C64.789963,348.285156 69.947174,333.052338 69.912086,315.831818 
	C69.837738,279.342072 69.860245,242.852005 69.938820,206.362274 
	C69.946259,202.907440 70.631279,199.454056 71.626587,195.724930 
M164.412933,86.640106 
	C166.555618,87.510368 168.851044,88.122963 170.818314,89.289124 
	C206.269440,110.303749 241.675003,131.395218 277.107025,152.442093 
	C282.707123,155.768585 288.388489,158.958298 294.886993,162.703903 
	C294.886993,152.890152 295.198639,144.256149 294.685089,135.671509 
	C294.542664,133.291199 292.492950,130.159576 290.398804,128.893982 
	C266.789642,114.625565 242.998291,100.658676 219.261719,86.600914 
	C202.960648,76.946754 186.752441,67.130692 170.306488,57.730316 
	C166.766357,55.706802 162.146637,53.642830 158.433380,54.221767 
	C148.260437,55.807819 140.257950,62.397083 131.368546,68.261681 
	C129.406418,69.750587 127.563950,71.439415 125.463173,72.696648 
	C109.185776,82.438087 92.875519,92.124985 76.542519,101.773064 
	C53.907825,115.143623 31.200729,128.392822 8.666332,141.929886 
	C6.594753,143.174347 4.551827,145.997391 4.259409,148.310410 
	C3.831002,151.699112 7.096866,152.497559 10.035252,153.189590 
	C25.909332,156.928146 40.871929,154.417343 54.701309,146.144547 
	C85.545723,127.693283 116.255669,109.015846 146.921356,90.268547 
	C152.269302,86.999115 157.667801,85.094940 164.412933,86.640106 
M290.690979,406.886902 
	C293.259125,405.350586 295.821472,403.804535 298.396240,402.279358 
	C336.367401,379.787689 374.365143,357.340485 412.244720,334.695557 
	C414.298859,333.467560 415.367523,330.591125 416.894897,328.482025 
	C414.767273,326.944702 412.844482,324.600250 410.479065,323.999847 
	C393.943420,319.802887 378.524323,323.008423 364.009460,331.659546 
	C333.538483,349.820770 302.981415,367.838135 272.570160,386.098541 
	C267.311127,389.256287 262.043793,390.938019 255.568100,389.321075 
	C253.909927,388.573730 252.163315,387.976135 250.606552,387.057007 
	C215.414536,366.280304 180.249298,345.458252 145.062592,324.672546 
	C139.007797,321.095825 132.878433,317.645325 126.045380,313.711578 
	C126.045380,321.530487 126.385963,328.350555 125.955162,335.121552 
	C125.467407,342.787750 128.910522,347.454987 135.301254,351.180389 
	C162.570541,367.076721 189.685150,383.238342 216.864319,399.289429 
	C228.737839,406.301514 240.511566,413.498199 252.597687,420.123871 
	C255.677383,421.812225 260.545715,423.292542 263.266876,422.024445 
	C272.501892,417.720795 281.143402,412.143585 290.690979,406.886902 
M309.980072,112.939423 
	C309.980072,167.473450 309.980072,222.007477 309.980072,277.704071 
	C317.949005,272.258514 324.705658,267.489960 331.626465,262.972900 
	C335.354187,260.539917 336.988678,257.314362 336.953156,252.963196 
	C336.893311,245.631714 336.915558,238.298904 336.974640,230.967239 
	C337.299286,190.669159 337.636505,150.371185 337.995300,110.073402 
	C338.043610,104.648216 336.664581,99.571671 332.452423,96.167503 
	C325.495972,90.545441 318.087006,85.483307 310.308655,79.789948 
	C303.164825,75.531303 296.027039,71.262413 288.876099,67.015747 
	C254.401276,46.542515 219.928207,26.066259 185.422852,5.644580 
	C184.254593,4.953154 182.748413,4.832653 181.399765,4.446037 
	C181.204239,5.984991 180.607269,7.597612 180.874115,9.051716 
	C184.233170,27.356651 193.528656,42.196625 209.284973,51.869461 
	C242.604584,72.324432 276.399841,92.004608 309.980072,112.939423 
M114.268600,398.662384 
	C152.751694,421.479553 191.216248,444.328217 229.775253,467.016357 
	C231.610123,468.095978 235.120560,468.785767 236.336548,467.796265 
	C237.660324,466.719116 237.956955,463.279755 237.425400,461.195709 
	C233.006851,443.872467 222.675217,430.923187 207.396591,421.821411 
	C182.961685,407.265045 158.552628,392.664703 134.057495,378.210297 
	C126.501930,373.751770 118.701691,369.707855 111.135452,364.609161 
	C111.135452,309.568970 111.135452,254.528748 111.135452,198.439133 
	C102.951279,203.313004 95.555046,207.132614 88.905563,211.977173 
	C86.389244,213.810471 84.238831,218.001038 84.220505,221.130554 
	C83.931709,270.450256 83.906502,319.772888 84.223564,369.092255 
	C84.249847,373.179871 86.036575,378.619995 88.974876,381.060089 
	C96.675560,387.455109 105.466454,392.537323 114.268600,398.662384 
z"/>
<path fill="#AECBFA" opacity="1.000000" stroke="none" 
	d="
M132.026352,187.180695 
	C140.959702,181.491241 149.829025,175.698059 158.840790,170.135666 
	C173.825867,160.886307 188.937119,151.841278 203.917252,142.584061 
	C207.933197,140.102341 211.617569,139.265411 215.961212,141.934616 
	C239.321701,156.289825 262.765167,170.509964 286.166931,184.798126 
	C287.146423,185.396164 287.995819,186.207230 288.743103,187.492477 
	C281.890137,192.075043 275.224121,196.125320 268.505035,200.085556 
	C249.060745,211.546021 229.595108,222.970276 209.830063,234.190292 
	C188.500412,221.547256 167.451599,209.167862 146.476562,196.664719 
	C141.532227,193.717422 136.836456,190.353149 132.026352,187.180695 
z"/>
<path fill="#AECBFA" opacity="1.000000" stroke="none" 
	d="
M113.822853,398.142731 
	C105.466454,392.537323 96.675560,387.455109 88.974876,381.060089 
	C86.036575,378.619995 84.249847,373.179871 84.223564,369.092255 
	C83.906502,319.772888 83.931709,270.450256 84.220505,221.130554 
	C84.238831,218.001038 86.389244,213.810471 88.905563,211.977173 
	C95.555046,207.132614 102.951279,203.313004 111.135452,198.439133 
	C111.135452,254.528748 111.135452,309.568970 111.099808,365.560486 
	C111.264847,377.118164 110.107964,387.842896 113.822853,398.142731 
z"/>
<path fill="#AFCBFA" opacity="1.000000" stroke="none" 
	d="
M310.868713,80.185211 
	C318.087006,85.483307 325.495972,90.545441 332.452423,96.167503 
	C336.664581,99.571671 338.043610,104.648216 337.995300,110.073402 
	C337.636505,150.371185 337.299286,190.669159 336.974640,230.967239 
	C336.915558,238.298904 336.893311,245.631714 336.953156,252.963196 
	C336.988678,257.314362 335.354187,260.539917 331.626465,262.972900 
	C324.705658,267.489960 317.949005,272.258514 309.980072,277.704071 
	C309.980072,222.007477 309.980072,167.473450 309.981689,112.002197 
	C310.278473,100.771721 310.573608,90.478462 310.868713,80.185211 
z"/>
<path fill="#AFCBFA" opacity="1.000000" stroke="none" 
	d="
M290.011627,407.052887 
	C281.143402,412.143585 272.501892,417.720795 263.266876,422.024445 
	C260.545715,423.292542 255.677383,421.812225 252.597687,420.123871 
	C240.511566,413.498199 228.737839,406.301514 216.864319,399.289429 
	C189.685150,383.238342 162.570541,367.076721 135.301254,351.180389 
	C128.910522,347.454987 125.467407,342.787750 125.955162,335.121552 
	C126.385963,328.350555 126.045380,321.530487 126.045380,313.711578 
	C132.878433,317.645325 139.007797,321.095825 145.062592,324.672546 
	C180.249298,345.458252 215.414536,366.280304 250.606552,387.057007 
	C252.163315,387.976135 253.909927,388.573730 255.961578,389.886780 
	C267.453735,396.229584 276.970123,405.214722 290.011627,407.052887 
z"/>
<path fill="#AFCBFA" opacity="1.000000" stroke="none" 
	d="
M132.041809,68.197845 
	C140.257950,62.397083 148.260437,55.807819 158.433380,54.221767 
	C162.146637,53.642830 166.766357,55.706802 170.306488,57.730316 
	C186.752441,67.130692 202.960648,76.946754 219.261719,86.600914 
	C242.998291,100.658676 266.789642,114.625565 290.398804,128.893982 
	C292.492950,130.159576 294.542664,133.291199 294.685089,135.671509 
	C295.198639,144.256149 294.886993,152.890152 294.886993,162.703903 
	C288.388489,158.958298 282.707123,155.768585 277.107025,152.442093 
	C241.675003,131.395218 206.269440,110.303749 170.818314,89.289124 
	C168.851044,88.122963 166.555618,87.510368 164.319031,86.163605 
	C163.769470,85.279945 163.373428,84.760399 162.849289,84.482246 
	C152.589066,79.037292 142.313904,73.620445 132.041809,68.197845 
z"/>
<path fill="#AECBFA" opacity="1.000000" stroke="none" 
	d="
M379.111481,258.980804 
	C379.683350,271.007904 383.834808,283.895691 374.624786,294.143555 
	C369.559845,299.779205 362.543060,303.860901 355.942505,307.881897 
	C325.567322,326.386017 295.005981,344.584412 264.574677,362.996948 
	C260.260834,365.607086 256.398773,365.794220 252.033173,363.155212 
	C245.515747,359.215363 238.782394,355.632721 231.092087,351.308350 
	C236.437408,347.970154 240.940231,345.068054 245.528137,342.307343 
	C278.852173,322.254761 312.197113,302.237000 345.514648,282.173615 
	C346.773438,281.415558 347.818726,280.303040 349.616333,279.164062 
	C360.331970,272.955963 371.528900,268.575653 379.111481,258.980804 
z"/>
<path fill="#AFCBFA" opacity="1.000000" stroke="none" 
	d="
M42.683380,216.046005 
	C42.540329,206.618256 41.933331,197.166321 42.423233,187.771591 
	C42.731266,181.864532 47.446262,178.272598 52.310242,175.395508 
	C70.896301,164.401688 89.500427,153.438446 108.086075,142.443954 
	C123.810822,133.141830 139.606247,123.954285 155.187500,114.417221 
	C160.577118,111.118309 165.224274,110.378845 170.730377,114.182281 
	C176.568924,118.215355 182.918549,121.508575 190.148117,125.776093 
	C184.242996,129.327179 179.270813,132.384903 174.235260,135.334412 
	C140.702332,154.975983 107.154930,174.592834 73.619995,194.230988 
	C72.908051,194.647888 72.288986,195.223404 70.967155,195.917084 
	C60.941116,202.535202 49.364326,205.898773 42.683380,216.046005 
z"/>
<path fill="#689EF6" opacity="1.000000" stroke="none" 
	d="
M290.351318,406.969910 
	C276.970123,405.214722 267.453735,396.229584 256.169342,390.158234 
	C262.043793,390.938019 267.311127,389.256287 272.570160,386.098541 
	C302.981415,367.838135 333.538483,349.820770 364.009460,331.659546 
	C378.524323,323.008423 393.943420,319.802887 410.479065,323.999847 
	C412.844482,324.600250 414.767273,326.944702 416.894897,328.482025 
	C415.367523,330.591125 414.298859,333.467560 412.244720,334.695557 
	C374.365143,357.340485 336.367401,379.787689 298.396240,402.279358 
	C295.821472,403.804535 293.259125,405.350586 290.351318,406.969910 
z"/>
<path fill="#689EF6" opacity="1.000000" stroke="none" 
	d="
M131.705170,68.229767 
	C142.313904,73.620445 152.589066,79.037292 162.849289,84.482246 
	C163.373428,84.760399 163.769470,85.279945 164.075623,85.904831 
	C157.667801,85.094940 152.269302,86.999115 146.921356,90.268547 
	C116.255669,109.015846 85.545723,127.693283 54.701309,146.144547 
	C40.871929,154.417343 25.909332,156.928146 10.035252,153.189590 
	C7.096866,152.497559 3.831002,151.699112 4.259409,148.310410 
	C4.551827,145.997391 6.594753,143.174347 8.666332,141.929886 
	C31.200729,128.392822 53.907825,115.143623 76.542519,101.773064 
	C92.875519,92.124985 109.185776,82.438087 125.463173,72.696648 
	C127.563950,71.439415 129.406418,69.750587 131.705170,68.229767 
z"/>
<path fill="#689FF6" opacity="1.000000" stroke="none" 
	d="
M379.101318,258.690430 
	C371.528900,268.575653 360.331970,272.955963 349.870880,278.977997 
	C350.388794,275.173798 352.080139,271.368286 352.100891,267.553680 
	C352.302216,230.579346 352.038300,193.602188 352.299408,156.628616 
	C352.438141,136.981796 360.190613,120.490990 374.926392,107.385765 
	C375.791351,106.616554 376.744080,105.931282 377.722412,105.311974 
	C378.091980,105.078018 378.650146,105.141945 379.855591,104.958458 
	C379.448486,110.519997 379.058411,115.849007 378.343292,121.641182 
	C378.113190,122.386337 378.208099,122.668327 378.303009,122.950317 
	C378.315796,128.401550 378.321655,133.852814 378.342499,139.304016 
	C378.484039,176.323792 378.630585,213.343567 378.766418,250.363358 
	C378.772491,252.020340 378.690704,253.677643 378.242432,255.758698 
	C377.993011,256.432465 378.151062,256.682343 378.309082,256.932251 
	C378.569763,257.421509 378.830444,257.910767 379.101318,258.690430 
z"/>
<path fill="#689EF6" opacity="1.000000" stroke="none" 
	d="
M42.712921,216.510437 
	C49.364326,205.898773 60.941116,202.535202 70.654724,196.054611 
	C70.631279,199.454056 69.946259,202.907440 69.938820,206.362274 
	C69.860245,242.852005 69.837738,279.342072 69.912086,315.831818 
	C69.947174,333.052338 64.789963,348.285156 52.890980,360.885254 
	C51.085663,362.796906 48.065937,363.561768 45.607918,364.857056 
	C44.724125,362.381409 43.078503,359.908447 43.069702,357.429688 
	C42.913639,313.442413 42.960548,269.454437 42.947453,225.466599 
	C42.946609,222.636002 42.813850,219.805450 42.712921,216.510437 
z"/>
<path fill="#679EF6" opacity="1.000000" stroke="none" 
	d="
M310.588684,79.987579 
	C310.573608,90.478462 310.278473,100.771721 309.991669,111.533783 
	C276.399841,92.004608 242.604584,72.324432 209.284973,51.869461 
	C193.528656,42.196625 184.233170,27.356651 180.874115,9.051716 
	C180.607269,7.597612 181.204239,5.984991 181.399750,4.446035 
	C182.748413,4.832653 184.254593,4.953154 185.422852,5.644580 
	C219.928207,26.066259 254.401276,46.542515 288.876099,67.015747 
	C296.027039,71.262413 303.164825,75.531303 310.588684,79.987579 
z"/>
<path fill="#679EF6" opacity="1.000000" stroke="none" 
	d="
M114.045731,398.402557 
	C110.107964,387.842896 111.264847,377.118164 111.038818,365.992981 
	C118.701691,369.707855 126.501930,373.751770 134.057495,378.210297 
	C158.552628,392.664703 182.961685,407.265045 207.396591,421.821411 
	C222.675217,430.923187 233.006851,443.872467 237.425400,461.195709 
	C237.956955,463.279755 237.660324,466.719116 236.336548,467.796265 
	C235.120560,468.785767 231.610123,468.095978 229.775253,467.016357 
	C191.216248,444.328217 152.751694,421.479553 114.045731,398.402557 
z"/>
<path fill="#4487F4" opacity="1.000000" stroke="none" 
	d="
M210.118256,275.572784 
	C217.582962,271.614136 225.171707,267.870758 232.487976,263.654541 
	C250.919037,253.033157 269.212097,242.172455 287.607422,231.488541 
	C289.517700,230.379059 291.743042,229.811951 294.627563,228.676010 
	C294.627563,235.196457 294.769745,240.789536 294.508881,246.363754 
	C294.456055,247.493042 293.098999,248.914566 291.975555,249.588654 
	C266.039673,265.151367 240.057922,280.637726 214.055344,296.088837 
	C213.123093,296.642792 211.891953,296.693756 210.420319,296.425812 
	C210.066437,289.105896 210.092346,282.339355 210.118256,275.572784 
z"/>
<path fill="#4487F4" opacity="1.000000" stroke="none" 
	d="
M210.095840,318.425903 
	C216.386688,315.090912 222.832275,312.015442 228.940201,308.373688 
	C249.670532,296.013672 270.280151,283.451263 290.942047,270.976410 
	C292.033081,270.317657 293.180969,269.753052 294.956726,268.789581 
	C294.956726,274.710083 295.555176,280.059296 294.710663,285.170135 
	C294.271790,287.826019 291.781738,290.861359 289.370026,292.361481 
	C266.048798,306.867584 242.558777,321.102753 219.081512,335.356873 
	C216.432190,336.965363 213.564392,338.214050 210.428314,339.123962 
	C210.071091,331.887543 210.083466,325.156708 210.095840,318.425903 
z"/>
<path fill="#689EF6" opacity="1.000000" stroke="none" 
	d="
M209.729630,318.302979 
	C210.083466,325.156708 210.071091,331.887543 210.087585,339.043579 
	C207.701233,338.576141 205.065582,338.046722 202.904648,336.735107 
	C179.469772,322.511383 156.154449,308.090302 132.690521,293.915070 
	C128.018112,291.092346 125.861420,287.447662 126.086510,282.087463 
	C126.246490,278.277863 126.117531,274.456177 126.117531,269.524445 
	C128.522812,270.846497 130.323959,271.765686 132.056702,272.799561 
	C156.313828,287.272827 180.555878,301.771393 204.826416,316.222168 
	C206.229843,317.057739 207.846176,317.535675 209.729630,318.302979 
z"/>
<path fill="#689EF6" opacity="1.000000" stroke="none" 
	d="
M209.763947,275.404510 
	C210.092346,282.339355 210.066437,289.105896 210.051666,296.323914 
	C198.588715,290.100342 187.076050,283.490509 175.649948,276.734253 
	C160.345032,267.684509 145.153030,258.442749 129.799332,249.477310 
	C126.938538,247.806808 125.906891,245.898102 126.055946,242.694489 
	C126.287254,237.723129 126.117035,232.733093 126.117035,226.730103 
	C129.477966,228.620285 132.276123,230.118698 135.001968,231.738785 
	C158.289810,245.579910 181.558578,259.453125 204.857819,273.274994 
	C206.267014,274.110962 207.887482,274.590698 209.763947,275.404510 
z"/>
<path fill="#4487F4" opacity="1.000000" stroke="none" 
	d="
M210.137848,234.408722 
	C229.595108,222.970276 249.060745,211.546021 268.505035,200.085556 
	C275.224121,196.125320 281.890137,192.075043 288.840210,187.800781 
	C290.621887,188.676224 293.058136,189.552429 293.479828,191.011063 
	C294.425995,194.283554 294.244537,197.864334 294.754425,201.284973 
	C295.464722,206.050232 291.592010,206.957413 288.736908,208.654205 
	C262.758331,224.093369 236.755508,239.491730 210.400360,254.391968 
	C210.073227,247.390839 210.105530,240.899780 210.137848,234.408722 
z"/>
<path fill="#689EF6" opacity="1.000000" stroke="none" 
	d="
M209.830048,234.190277 
	C210.105530,240.899780 210.073227,247.390839 210.050720,254.333527 
	C195.300247,246.116486 180.521667,237.478836 165.785583,228.769257 
	C154.182709,221.911560 142.639404,214.953110 131.055893,208.062546 
	C123.722176,203.700027 123.860214,192.052429 131.675781,187.202881 
	C136.836456,190.353149 141.532227,193.717422 146.476562,196.664719 
	C167.451599,209.167862 188.500412,221.547256 209.830048,234.190277 
z"/>
<path fill="#5996F6" opacity="1.000000" stroke="none" 
	d="
M378.398224,122.728592 
	C378.208099,122.668327 378.113190,122.386337 378.181946,122.075905 
	C378.345612,122.047470 378.493439,122.506874 378.398224,122.728592 
z"/>
<path fill="#5996F6" opacity="1.000000" stroke="none" 
	d="
M378.318115,256.710114 
	C378.151062,256.682343 377.993011,256.432465 378.040527,256.116699 
	C378.246124,256.050812 378.327148,256.487976 378.318115,256.710114 
z"/>
</svg>