<?xml version="1.0" encoding="UTF-8"?>
<svg version="1.1" xmlns="http://www.w3.org/2000/svg" width="512" height="512">
<path d="M0 0 C18.28516052 -0.08021762 18.28516052 -0.08021762 26.18554688 -0.09765625 C31.53934786 -0.10953054 36.89307932 -0.12345104 42.24682617 -0.15087891 C46.57164322 -0.17289232 50.89638552 -0.18462747 55.22125435 -0.18975449 C56.85674781 -0.19339987 58.492238 -0.20051508 60.1276989 -0.21146011 C94.11984609 -0.42953169 122.16183417 7.90947127 147 32 C159.2805385 44.23454397 166.74651692 59.88285135 174.4375 75.1875 C176.20450449 78.68227105 177.97541561 82.17505792 179.74609375 85.66796875 C180.18061356 86.52695267 180.61513336 87.38593658 181.06282043 88.27095032 C184.877235 95.79754472 188.79876219 103.26515678 192.74291992 110.72436523 C195.17098984 115.31654725 197.55997345 119.92841908 199.94238281 124.54443359 C202.609814 129.70593908 205.30350017 134.85363644 208 140 C208.74564209 141.42868408 208.74564209 141.42868408 209.50634766 142.88623047 C219.51555599 161.97144259 229.57050963 176.12642088 250.44140625 184.02734375 C260.9282431 186.89366908 271.24516698 187.27514703 282.046875 187.1953125 C283.55429901 187.19157224 285.0617255 187.18873007 286.56915283 187.18673706 C290.49490327 187.17918019 294.42050057 187.15960224 298.34619141 187.1373291 C303.07875403 187.11305585 307.81136849 187.10405176 312.54397583 187.09242249 C319.69608969 187.07317139 326.84786897 187.03479415 334 187 C319.81 172.81 305.62 158.62 291 144 C293.12797877 139.74404245 295.76324872 136.98205261 299.1015625 133.703125 C299.69802582 133.10949158 300.29448914 132.51585815 300.9090271 131.90423584 C302.8096981 130.01473373 304.71721474 128.13231608 306.625 126.25 C307.91712468 124.96790935 309.20879676 123.68536239 310.5 122.40234375 C313.66144479 119.26291568 316.8290461 116.12982199 320 113 C325.60309636 117.67275753 330.80943187 122.64380269 335.98046875 127.78759766 C337.28651314 129.08137581 337.28651314 129.08137581 338.61894226 130.40129089 C341.47816521 133.23584214 344.33344187 136.07431365 347.1875 138.9140625 C348.17408726 139.89528304 349.1606799 140.87649816 350.14727783 141.85770798 C354.24676517 145.9356275 358.34483885 150.01495889 362.43920898 154.09801674 C368.29566941 159.93818218 374.16050831 165.76964023 380.03712177 171.58952868 C384.17842014 175.69220788 388.3101656 179.80435157 392.43484783 183.92373502 C394.89620214 186.38143149 397.36158692 188.83474435 399.83724976 191.27803421 C402.59014912 193.99543374 405.32320343 196.73225774 408.0546875 199.47119141 C408.87950119 200.27959976 409.70431488 201.08800812 410.55412292 201.9209137 C411.29149185 202.6666011 412.02886078 203.41228851 412.78857422 204.18057251 C413.43672089 204.82540903 414.08486755 205.47024555 414.75265503 206.13462257 C416 208 416 208 415.928895 209.98798561 C414.7627651 212.5138579 413.32260826 214.04612367 411.34910583 216.01165771 C410.56521484 216.7996727 409.78132385 217.58768768 408.97367859 218.39958191 C407.67464348 219.68243828 407.67464348 219.68243828 406.34936523 220.99121094 C405.44213715 221.89887711 404.53490906 222.80654327 403.60018921 223.74171448 C401.1131993 226.2295655 398.6170649 228.70805524 396.11920047 231.18498135 C393.50998907 233.77544539 390.90926471 236.37440139 388.30763245 238.97247314 C383.38020919 243.89057024 378.44518818 248.8009697 373.50739962 253.7086575 C367.88609729 259.29643363 362.27330601 264.89272557 356.66121757 270.48975325 C345.11692996 282.00267889 333.56198775 293.50484947 322 305 C317.78323595 303.07139535 314.91678209 300.17029862 311.703125 296.8984375 C310.81267487 296.00374252 310.81267487 296.00374252 309.90423584 295.0909729 C308.01473373 293.1903019 306.13231608 291.28278526 304.25 289.375 C302.96790935 288.08287532 301.68536239 286.79120324 300.40234375 285.5 C297.26291568 282.33855521 294.12982199 279.1709539 291 276 C292.47122616 272.59646978 294.36942513 270.38744251 296.99072266 267.78222656 C297.81142242 266.96167786 298.63212219 266.14112915 299.47769165 265.29571533 C300.36419403 264.41953552 301.25069641 263.54335571 302.1640625 262.640625 C303.07127045 261.73624695 303.97847839 260.8318689 304.91317749 259.90008545 C307.31884419 257.50203542 309.73045736 255.11005382 312.14337158 252.71929932 C314.60702344 250.27614829 317.06498577 247.82728794 319.5234375 245.37890625 C324.34373573 240.58066212 329.16969843 235.78817268 334 231 C325.34116785 230.95340169 316.6823797 230.91799241 308.02344894 230.89637566 C304.00158977 230.88599415 299.97981718 230.87193958 295.95800781 230.84912109 C292.06763117 230.82718961 288.17733714 230.81538916 284.28690338 230.81024551 C282.81195019 230.80658582 281.33700088 230.79944088 279.86208344 230.78853989 C261.53033903 230.65859512 245.67449491 233.31979495 231 245 C230.05060547 245.74588379 229.10121094 246.49176758 228.12304688 247.26025391 C218.00014613 255.74261142 212.3538501 269.55515096 206.5625 281.125 C205.72039293 282.78911777 204.87720407 284.45268853 204.03295898 286.11572266 C202.39894537 289.33529068 200.76841867 292.55658014 199.140625 295.77929688 C196.66508084 300.67139212 194.13287945 305.53209856 191.5625 310.375 C190.81111577 311.79422735 190.05981281 313.21349772 189.30859375 314.6328125 C188.93976074 315.32922852 188.57092773 316.02564453 188.19091797 316.74316406 C185.81953439 321.23702832 183.47439664 325.74461589 181.125 330.25 C180.62387695 331.2080957 180.12275391 332.16619141 179.60644531 333.15332031 C177.00661901 338.12813207 174.42887733 343.11263685 171.88671875 348.1171875 C156.40752054 378.47090861 136.28199665 402.52018974 102.95947266 413.40234375 C88.25813184 417.88638092 73.52012699 418.14758034 58.30078125 418.09765625 C56.61256452 418.0957873 54.92434723 418.09436565 53.23612976 418.09336853 C48.82872984 418.08958091 44.42136376 418.07978344 40.01397705 418.06866455 C34.70656279 418.05655346 29.39913712 418.05203028 24.09171295 418.04621124 C16.06111856 418.03656908 8.03059815 418.01738643 0 418 C0 403.81 0 389.62 0 375 C5.445 374.97421875 10.89 374.9484375 16.5 374.921875 C19.98181567 374.89666217 23.46354826 374.87029529 26.9453125 374.83984375 C32.45280089 374.79178284 37.96009657 374.74763677 43.46777344 374.72900391 C47.91601774 374.71368497 52.36375241 374.67897632 56.81176758 374.63169098 C58.49547862 374.61703228 60.17926248 374.60896807 61.86303711 374.60811615 C81.0200996 374.58870378 98.27172403 371.08309621 113 358 C113.70640625 357.38511719 114.4128125 356.77023437 115.140625 356.13671875 C123.18450794 348.22304255 127.581321 337.85231305 132.55517578 327.87744141 C134.60132931 323.80242189 136.73511601 319.77633166 138.875 315.75 C142.95614928 308.02041164 146.98096398 300.262029 151 292.5 C161.44467401 272.33844054 161.44467401 272.33844054 166.66796875 262.51367188 C167.63066672 260.69696764 168.58837604 258.87761685 169.54296875 257.05664062 C179.01847137 238.9946671 188.71071146 223.72584203 204 210 C204.66 210 205.32 210 206 210 C206 209.34 206 208.68 206 208 C205.40396973 207.72631592 204.80793945 207.45263184 204.19384766 207.1706543 C200.69858733 205.305556 198.17289526 202.58284486 195.375 199.8125 C194.80910156 199.27947266 194.24320313 198.74644531 193.66015625 198.19726562 C182.46458471 187.13822545 175.45947625 172.65334949 168.5 158.75 C167.66097934 157.09207016 166.82088139 155.43468508 165.97973633 153.77783203 C164.35520502 150.57712315 162.73411197 147.37471676 161.11572266 144.17089844 C158.6903614 139.3785635 156.20801681 134.61793718 153.6875 129.875 C150.3969162 123.67119292 147.15787069 117.44250376 143.93896484 111.20117188 C138.87549042 101.39316058 133.78542415 91.59920508 128.5625 81.875 C128.10311035 81.00576904 127.6437207 80.13653809 127.17041016 79.2409668 C117.93852372 62.20375841 105.25662879 51.72144751 86.82421875 45.76171875 C81.27034133 44.26378501 75.8903548 43.84128557 70.15869141 43.79467773 C69.39703674 43.78477814 68.63538208 43.77487854 67.85064697 43.76467896 C65.350983 43.73327139 62.85130006 43.70838922 60.3515625 43.68359375 C58.61135382 43.66300627 56.87114994 43.64200934 55.13095093 43.62062073 C50.56406556 43.56558523 45.99713646 43.51609472 41.43017578 43.46777344 C35.94344834 43.40856071 30.45680035 43.34243523 24.97013855 43.27747345 C16.6468078 43.17969717 8.32342468 43.09068172 0 43 C0 28.81 0 14.62 0 0 Z " fill="#669DF6" transform="translate(48,47)"/>
<path d="M0 0 C18.28516052 -0.08021762 18.28516052 -0.08021762 26.18554688 -0.09765625 C31.53934786 -0.10953054 36.89307932 -0.12345104 42.24682617 -0.15087891 C46.57164322 -0.17289232 50.89638552 -0.18462747 55.22125435 -0.18975449 C56.85674781 -0.19339987 58.492238 -0.20051508 60.1276989 -0.21146011 C94.11984609 -0.42953169 122.16183417 7.90947127 147 32 C159.2805385 44.23454397 166.74651692 59.88285135 174.4375 75.1875 C176.20450449 78.68227105 177.97541561 82.17505792 179.74609375 85.66796875 C180.18061356 86.52695267 180.61513336 87.38593658 181.06282043 88.27095032 C184.877235 95.79754472 188.79876219 103.26515678 192.74291992 110.72436523 C195.17098984 115.31654725 197.55997345 119.92841908 199.94238281 124.54443359 C202.609814 129.70593908 205.30350017 134.85363644 208 140 C208.74564209 141.42868408 208.74564209 141.42868408 209.50634766 142.88623047 C219.48525575 161.91366713 229.67229437 176.61047606 250.765625 184.0703125 C255.78111217 185.51196219 260.82413634 186.37516601 266 187 C266 187.33 266 187.66 266 188 C264.68902344 188.12955078 264.68902344 188.12955078 263.3515625 188.26171875 C244.06596837 190.46520906 225.26983003 195.82624637 209.89453125 208.1640625 C208 209 208 209 205.7109375 208.56640625 C201.8529869 206.33724459 198.94446807 203.45731717 195.8125 200.3125 C195.20341797 199.73177734 194.59433594 199.15105469 193.96679688 198.55273438 C182.66986247 187.30262664 175.55623691 172.84665386 168.5 158.75 C167.66097934 157.09207016 166.82088139 155.43468508 165.97973633 153.77783203 C164.35520502 150.57712315 162.73411197 147.37471676 161.11572266 144.17089844 C158.6903614 139.3785635 156.20801681 134.61793718 153.6875 129.875 C150.3969162 123.67119292 147.15787069 117.44250376 143.93896484 111.20117188 C138.87549042 101.39316058 133.78542415 91.59920508 128.5625 81.875 C128.10311035 81.00576904 127.6437207 80.13653809 127.17041016 79.2409668 C117.93852372 62.20375841 105.25662879 51.72144751 86.82421875 45.76171875 C81.27034133 44.26378501 75.8903548 43.84128557 70.15869141 43.79467773 C69.39703674 43.78477814 68.63538208 43.77487854 67.85064697 43.76467896 C65.350983 43.73327139 62.85130006 43.70838922 60.3515625 43.68359375 C58.61135382 43.66300627 56.87114994 43.64200934 55.13095093 43.62062073 C50.56406556 43.56558523 45.99713646 43.51609472 41.43017578 43.46777344 C35.94344834 43.40856071 30.45680035 43.34243523 24.97013855 43.27747345 C16.6468078 43.17969717 8.32342468 43.09068172 0 43 C0 28.81 0 14.62 0 0 Z " fill="#ADCAF9" transform="translate(48,47)"/>
<path d="M0 0 C5.60309636 4.67275753 10.80943187 9.64380269 15.98046875 14.78759766 C16.85116501 15.65011642 17.72186127 16.51263519 18.61894226 17.40129089 C21.47816521 20.23584214 24.33344187 23.07431365 27.1875 25.9140625 C28.17408726 26.89528304 29.1606799 27.87649816 30.14727783 28.85770798 C34.24676517 32.9356275 38.34483885 37.01495889 42.43920898 41.09801674 C48.29566941 46.93818218 54.16050831 52.76964023 60.03712177 58.58952868 C64.17842014 62.69220788 68.3101656 66.80435157 72.43484783 70.92373502 C74.89620214 73.38143149 77.36158692 75.83474435 79.83724976 78.27803421 C82.59014912 80.99543374 85.32320343 83.73225774 88.0546875 86.47119141 C88.87950119 87.27959976 89.70431488 88.08800812 90.55412292 88.9209137 C91.66017632 90.03944481 91.66017632 90.03944481 92.78857422 91.18057251 C93.43672089 91.82540903 94.08486755 92.47024555 94.75265503 93.13462257 C96 95 96 95 95.928895 96.98798561 C94.7627651 99.5138579 93.32260826 101.04612367 91.34910583 103.01165771 C90.56521484 103.7996727 89.78132385 104.58768768 88.97367859 105.39958191 C88.10765518 106.25481949 87.24163177 107.11005707 86.34936523 107.99121094 C84.9885231 109.35271019 84.9885231 109.35271019 83.60018921 110.74171448 C81.1131993 113.2295655 78.6170649 115.70805524 76.11920047 118.18498135 C73.50998907 120.77544539 70.90926471 123.37440139 68.30763245 125.97247314 C63.38020919 130.89057024 58.44518818 135.8009697 53.50739962 140.7086575 C47.88609729 146.29643363 42.27330601 151.89272557 36.66121757 157.48975325 C25.11692996 169.00267889 13.56198775 180.50484947 2 192 C-2.21676405 190.07139535 -5.08321791 187.17029862 -8.296875 183.8984375 C-9.18732513 183.00374252 -9.18732513 183.00374252 -10.09576416 182.0909729 C-11.98526627 180.1903019 -13.86768392 178.28278526 -15.75 176.375 C-17.03209065 175.08287532 -18.31463761 173.79120324 -19.59765625 172.5 C-22.73708432 169.33855521 -25.87017801 166.1709539 -29 163 C-27.35606624 158.78407069 -24.23644614 155.96977386 -21.08154297 152.85449219 C-20.47652954 152.24918671 -19.87151611 151.64388123 -19.24816895 151.02023315 C-17.25088001 149.0243355 -15.24660442 147.03561201 -13.2421875 145.046875 C-11.85455498 143.66297332 -10.4673639 142.27862888 -9.08059692 140.89385986 C-5.432074 137.2529678 -1.77758448 133.61812222 1.87817383 129.98449707 C5.60859789 126.27454312 9.33335643 122.55891073 13.05859375 118.84375 C20.36685747 111.55692656 27.68143616 104.27647735 35 97 C33.35606624 92.78407069 30.23644614 89.96977386 27.08154297 86.85449219 C26.47652954 86.24918671 25.87151611 85.64388123 25.24816895 85.02023315 C23.25088001 83.0243355 21.24660442 81.03561201 19.2421875 79.046875 C17.85455498 77.66297332 16.4673639 76.27862888 15.08059692 74.89385986 C11.432074 71.2529678 7.77758448 67.61812222 4.12182617 63.98449707 C0.39140211 60.27454312 -3.33335643 56.55891073 -7.05859375 52.84375 C-14.36685747 45.55692656 -21.68143616 38.27647735 -29 31 C-27.07139535 26.78323595 -24.17029862 23.91678209 -20.8984375 20.703125 C-20.30197418 20.10949158 -19.70551086 19.51585815 -19.0909729 18.90423584 C-17.1903019 17.01473373 -15.28278526 15.13231608 -13.375 13.25 C-12.08287532 11.96790935 -10.79120324 10.68536239 -9.5 9.40234375 C-6.33855521 6.26291568 -3.1709539 3.12982199 0 0 Z " fill="#4285F4" transform="translate(368,160)"/>
<path d="M0 0 C20.79 0 41.58 0 63 0 C63 21.12 63 42.24 63 64 C42.21 64 21.42 64 0 64 C0 42.88 0 21.76 0 0 Z " fill="#669DF6" transform="translate(48,297)"/>
<path d="M0 0 C20.79 0 41.58 0 63 0 C63 21.12 63 42.24 63 64 C42.21 64 21.42 64 0 64 C0 42.88 0 21.76 0 0 Z " fill="#669DF6" transform="translate(48,151)"/>
</svg>
