<svg xmlns="http://www.w3.org/2000/svg" xmlns:xlink="http://www.w3.org/1999/xlink" viewBox="0 0 81 81" fill="#fff" fill-rule="evenodd" stroke="#000" stroke-linecap="round" stroke-linejoin="round"><use xlink:href="#A" x=".5" y=".5"/><symbol id="A" overflow="visible"><g stroke="none"><g fill="#aecbfa"><path d="M63.4 48.8L22.68 72.32l-3.92-6.72 40.76-23.56 3.88 6.76z"/><path d="M22.52 64.64V17.6H30V59l-7.48 5.64z"/><path d="M30.24 30.76l-1.04-9.44L69.96 44.8l-3.88 6.72-35.84-20.76z"/></g><path d="M49.56 33.04L29.2 21.32l1.04 9.44 6.04 3.44a16 16 0 0 0 13.28-1.16z" fill="#4285f4"/><path d="M24.52 25.16h0A15.12 15.12 0 0 1 45.181 4.51 15.12 15.12 0 0 1 37.6 32.72a15.2 15.2 0 0 1-13.08-7.56zM44 13.96a7.36 7.36 0 0 0-6.36-3.68 7.32 7.32 0 0 0-7.36 7.32 7.36 7.36 0 0 0 11.176 6.824A7.36 7.36 0 0 0 44.96 17.6a7.2 7.2 0 0 0-.96-3.64z" fill="#aecbfa"/><path d="M22.52 43.76v20.88L30 59v-6.52a13.16 13.16 0 0 0-7.48-8.72zm22.8 15.48L63.4 48.8l-8.84-4-5 3.2a16.92 16.92 0 0 0-4.24 11.44z" fill="#4285f4"/><path d="M2.04 66.8h0a15.08 15.08 0 0 1 5.52-20.64A14.88 14.88 0 0 1 19 44.64 15.12 15.12 0 1 1 2.04 66.8zm19.4-11.24A7.16 7.16 0 0 0 17 52a7.32 7.32 0 0 0-8.24 10.76h0a7.33 7.33 0 1 0 12.68-7.36zm27.88 9.88h0a15.16 15.16 0 0 1 0-15.08c4.181-7.214 13.402-9.698 20.64-5.56 7.218 4.18 9.688 13.415 5.52 20.64a15.12 15.12 0 0 1-26.16 0zM68.76 54.2a8 8 0 0 0-2.68-2.68 7.4 7.4 0 0 0-10.04 2.72 7.44 7.44 0 0 0 0 7.32 7.32 7.32 0 0 0 8.28 3.4 7.28 7.28 0 0 0 4.44-3.4 7.52 7.52 0 0 0 0-7.36z" fill="#aecbfa"/><path d="M29.96 56.6s-9.36 8-11.2 9L30.2 59a16.28 16.28 0 0 0-.24-2.4zM32.6 32s-2.36-13.12-2.36-14.4v13.16a13.88 13.88 0 0 0 2.36 1.08zm20.6 13.88s11.04 4.6 12.88 5.64l-11.44-6.56a6.76 6.76 0 0 0-1.44.92z" fill="#669df6"/></g></symbol></svg>