<?xml version="1.0" encoding="UTF-8"?>
<!DOCTYPE svg PUBLIC "-//W3C//DTD SVG 1.1//EN" "http://www.w3.org/Graphics/SVG/1.1/DTD/svg11.dtd">
<svg xmlns="http://www.w3.org/2000/svg" version="1.1" width="242px" height="231px" style="shape-rendering:geometricPrecision; text-rendering:geometricPrecision; image-rendering:optimizeQuality; fill-rule:evenodd; clip-rule:evenodd" xmlns:xlink="http://www.w3.org/1999/xlink">
<g><path style="opacity:0.996" fill="#4284f3" d="M 78.5,49.5 C 79.2389,49.369 79.9056,49.5357 80.5,50C 85.9677,56.4689 91.801,62.6356 98,68.5C 103.677,61.9906 109.511,55.6572 115.5,49.5C 122.167,56.5 128.833,63.5 135.5,70.5C 142.167,63.5 148.833,56.5 155.5,49.5C 176.172,71.0061 196.506,92.8395 216.5,115C 196.689,137.311 176.356,159.144 155.5,180.5C 148.833,173.5 142.167,166.5 135.5,159.5C 128.806,166.526 122.139,173.526 115.5,180.5C 109.14,174.806 103.14,168.806 97.5,162.5C 91.8604,168.806 85.8604,174.806 79.5,180.5C 59.5282,158.859 39.5282,137.193 19.5,115.5C 39.1889,93.4801 58.8556,71.4801 78.5,49.5 Z M 78.5,64.5 C 83.2694,67.4341 87.2694,71.2674 90.5,76C 78.8203,89.0117 67.1537,102.012 55.5,115C 66.5963,128.601 78.2629,141.767 90.5,154.5C 86.8137,158.352 83.3137,162.352 80,166.5C 64.1667,149.333 48.3333,132.167 32.5,115C 48.0399,98.2963 63.3732,81.463 78.5,64.5 Z M 114.5,64.5 C 115.239,64.369 115.906,64.5357 116.5,65C 120.314,69.6487 124.314,74.1487 128.5,78.5C 117.129,90.5356 106.129,102.869 95.5,115.5C 106.5,127.5 117.5,139.5 128.5,151.5C 124.555,156.948 120.055,161.948 115,166.5C 99.3155,149.65 83.8155,132.65 68.5,115.5C 83.8555,98.48 99.1888,81.48 114.5,64.5 Z"/></g>
</svg>
