<?xml version="1.0" encoding="UTF-8"?>
<svg version="1.1" xmlns="http://www.w3.org/2000/svg" width="512" height="512">
<path d="M0 0 C12.54 0 25.08 0 38 0 C37.731875 3.361875 37.46375 6.72375 37.1875 10.1875 C37.21161887 15.19253184 37.39129079 19.96815391 40.59277344 24.01171875 C45.36896566 27.96538293 51.00962432 30.54512444 56.55371094 33.24902344 C62.42120086 36.23015391 68.0072209 39.68003728 73.63882446 43.08013916 C76.37355099 44.7251873 79.12118755 46.34798559 81.86878967 47.97140503 C92.99865704 54.551391 104.00530343 61.32567161 114.98583984 68.15161133 C119.30435172 70.7998742 123.65606905 73.39364143 128 76 C128 64.12 128 52.24 128 40 C140.54 40 153.08 40 166 40 C166.14806378 63.98633257 166.14806378 63.98633257 165 76 C178.44973929 68.73281786 191.8005858 61.31838059 205.05078125 53.69384766 C208.92022604 51.47147945 212.79445439 49.25751814 216.67323303 47.05148315 C219.69806781 45.3298568 222.71471221 43.59641763 225.71655273 41.83496094 C231.03206822 38.72972789 236.29563678 35.78149685 241.97265625 33.37890625 C249.28882837 30.29916715 249.28882837 30.29916715 255 25 C257.41901873 17.24213135 256.8257384 8.98726469 256 1 C269.35700949 0.82321605 282.65965829 1.37174743 296 2 C295.98259766 3.23641235 295.98259766 3.23641235 295.96484375 4.49780273 C295.91375958 11.03338362 296.07930396 17.39470607 296.625 23.91015625 C297.98729673 44.29494817 297.98729673 44.29494817 292.96777344 50.52050781 C287.36502289 54.85406819 280.89724118 57.2562645 274.30126953 59.69433594 C269.16781854 61.72463441 264.54905211 64.50077698 259.8125 67.3125 C257.91536859 68.39650448 256.01555557 69.47582742 254.11328125 70.55078125 C252.6430249 71.38343506 252.6430249 71.38343506 251.14306641 72.23291016 C245.28346421 75.52728647 239.39034591 78.76103783 233.5 82 C223.51883834 87.48899014 213.57078511 93.03093598 203.66992188 98.6640625 C197.48430519 102.17999881 191.25599638 105.61089888 185 109 C188.41473427 111.84373188 191.86316307 114.2159427 195.70703125 116.44140625 C196.83625 117.09866699 197.96546875 117.75592773 199.12890625 118.43310547 C200.02826904 118.95297028 200.02826904 118.95297028 200.94580078 119.4833374 C204.17311746 121.34909029 207.39260446 123.22828546 210.61328125 125.10546875 C211.28855865 125.49857239 211.96383606 125.89167603 212.65957642 126.29669189 C220.63393592 130.94297389 228.5673441 135.65799269 236.5 140.375 C237.88386147 141.19736211 239.2677317 142.01970947 240.65161133 142.84204102 C244.10205814 144.89304522 247.55203606 146.94482329 251 149 C251.95841797 149.53318848 252.91683594 150.06637695 253.90429688 150.61572266 C254.59587891 151.07253418 255.28746094 151.5293457 256 152 C256 152.66 256 153.32 256 154 C255.29504395 154.39268066 254.59008789 154.78536133 253.86376953 155.18994141 C250.6165818 156.99996267 247.37078565 158.81246577 244.125 160.625 C243.01640625 161.24246094 241.9078125 161.85992187 240.765625 162.49609375 C239.12207031 163.41455078 239.12207031 163.41455078 237.4453125 164.3515625 C236.35766602 164.95774414 235.27001953 165.56392578 234.14941406 166.18847656 C230.41315408 168.33755013 226.7985555 170.65112532 223.21435547 173.04443359 C220.30991158 174.2977956 218.98427688 173.98113212 216 173 C213.46166992 171.71923828 213.46166992 171.71923828 210.73046875 170.0703125 C209.69204834 169.44882324 208.65362793 168.82733398 207.58374023 168.18701172 C206.46298096 167.50654785 205.34222168 166.82608398 204.1875 166.125 C203.00574997 165.41476097 201.8235292 164.70530469 200.64086914 163.99658203 C198.10578419 162.47660405 195.57282523 160.95316114 193.04101562 159.42773438 C186.72280688 155.62600217 180.37472958 151.87443983 174.03091431 148.11566162 C171.33105701 146.51559167 168.63189562 144.91435778 165.93391418 143.31112671 C164.67982199 142.56689558 163.42463136 141.82451178 162.16825867 141.08413696 C159.42072436 139.46147064 156.70511956 137.80967028 154.02392578 136.07910156 C153.15106934 135.51932617 152.27821289 134.95955078 151.37890625 134.3828125 C150.64357666 133.89441895 149.90824707 133.40602539 149.15063477 132.90283203 C146.31141125 131.71093187 144.90883766 132.07290854 142 133 C139.67216036 134.06874636 139.67216036 134.06874636 137.359375 135.44921875 C136.46653809 135.9604126 135.57370117 136.47160645 134.65380859 136.99829102 C133.69555176 137.55572998 132.73729492 138.11316895 131.75 138.6875 C129.67484951 139.8782498 127.59931526 141.06833103 125.5234375 142.2578125 C124.44932617 142.8755957 123.37521484 143.49337891 122.26855469 144.12988281 C115.95703958 147.74104249 109.59897437 151.26950365 103.24414062 154.80371094 C98.10208487 157.67170625 92.99187346 160.57887738 87.9296875 163.5859375 C86.97143066 164.15046631 86.01317383 164.71499512 85.02587891 165.29663086 C83.22137228 166.36330536 81.42369922 167.44165608 79.63427734 168.53344727 C78.83199707 169.00580811 78.0297168 169.47816895 77.203125 169.96484375 C76.50864258 170.3837085 75.81416016 170.80257324 75.09863281 171.23413086 C72.26616633 172.26780319 70.8646691 171.92068178 68 171 C65.90033504 169.91933352 63.84170833 168.75729344 61.81640625 167.54296875 C61.23841782 167.19873367 60.66042938 166.8544986 60.06492615 166.49983215 C58.22663985 165.40247948 56.39468039 164.29501022 54.5625 163.1875 C53.33566483 162.45444452 52.10845452 161.72201648 50.88085938 160.99023438 C47.57519196 159.0125187 44.27536697 157.02773174 41 155 C40.14509476 154.47558823 40.14509476 154.47558823 39.2729187 153.94058228 C37.81236525 153.01526486 36.40102767 152.01318813 35 151 C35 150.34 35 149.68 35 149 C35.8189978 148.55684448 35.8189978 148.55684448 36.65454102 148.10473633 C48.15855136 141.87274984 59.60915501 135.55798892 70.98681641 129.09814453 C78.9459296 124.58351581 86.93629938 120.1269415 94.9375 115.6875 C95.54451752 115.35068207 96.15153503 115.01386414 96.77694702 114.6668396 C100.18397809 112.77671333 103.59168988 110.88781876 107 109 C103.54483491 106.11786355 100.04761967 103.73575887 96.15234375 101.48828125 C95.59197418 101.16290878 95.03160461 100.83753632 94.45425415 100.50230408 C93.24723023 99.80162584 92.03923188 99.10262399 90.83035278 98.40515137 C87.56606113 96.52083539 84.31014882 94.6221764 81.0546875 92.72265625 C80.38488358 92.33197968 79.71507965 91.9413031 79.02497864 91.53878784 C72.15529312 87.52249875 65.35425767 83.39628789 58.5625 79.25 C51.19869493 74.75695182 43.8340941 70.26848256 36.38891602 65.91088867 C34.60066051 64.85280383 32.82467126 63.77368339 31.06225586 62.6730957 C26.31527063 59.74177152 21.79723204 57.48909962 16.52734375 55.6328125 C9.70091906 52.92741153 3.83423264 50.5458429 0 44 C-3.55273434 30.05013561 -1.24955034 14.11327878 0 0 Z " fill="#669DF6" transform="translate(108,296)"/>
<path d="M0 0 C1.07048584 0.61415771 1.07048584 0.61415771 2.16259766 1.24072266 C4.33429762 2.50818985 6.48054119 3.81199983 8.625 5.125 C10.35361777 6.1727811 12.08282992 7.21958197 13.8125 8.265625 C14.77414063 8.84763672 15.73578125 9.42964844 16.7265625 10.02929688 C23.33980009 14.01065531 29.98486174 17.93873075 36.625 21.875 C38.67115184 23.08819765 40.71724269 24.30149457 42.76278687 25.51571655 C44.05805515 26.28344919 45.35444043 27.04930084 46.65200806 27.81314087 C49.47171876 29.47652051 52.25447636 31.16405832 55.00683594 32.93847656 C55.87856445 33.49760742 56.75029297 34.05673828 57.6484375 34.6328125 C58.74551025 35.36201904 58.74551025 35.36201904 59.86474609 36.10595703 C62.69340053 37.29033075 64.10264932 36.92168 67 36 C69.32783964 34.93125364 69.32783964 34.93125364 71.640625 33.55078125 C72.53346191 33.0395874 73.42629883 32.52839355 74.34619141 32.00170898 C75.30444824 31.44427002 76.26270508 30.88683105 77.25 30.3125 C79.32515049 29.1217502 81.40068474 27.93166897 83.4765625 26.7421875 C84.55067383 26.1244043 85.62478516 25.50662109 86.73144531 24.87011719 C93.04296042 21.25895751 99.40102563 17.73049635 105.75585938 14.19628906 C110.89791513 11.32829375 116.00812654 8.42112262 121.0703125 5.4140625 C122.02856934 4.84953369 122.98682617 4.28500488 123.97412109 3.70336914 C125.77862772 2.63669464 127.57630078 1.55834392 129.36572266 0.46655273 C130.56914307 -0.24198853 130.56914307 -0.24198853 131.796875 -0.96484375 C132.49135742 -1.3837085 133.18583984 -1.80257324 133.90136719 -2.23413086 C136.74505606 -3.27189866 138.12423612 -2.93597975 141 -2 C143.18686281 -0.8370945 145.32951593 0.41050629 147.4375 1.7109375 C148.04005615 2.0797403 148.6426123 2.44854309 149.26342773 2.82852173 C151.17999789 4.00372725 153.09003094 5.189103 155 6.375 C156.28342955 7.16475296 157.56727991 7.95382249 158.8515625 8.7421875 C161.21752788 10.19548197 163.5803646 11.65342508 165.94140625 13.11474609 C167.90416398 14.32454935 169.89012138 15.49792288 171.90234375 16.62353516 C172.59457031 17.07776855 173.28679687 17.53200195 174 18 C174 18.66 174 19.32 174 20 C173.39341553 20.32572998 172.78683105 20.65145996 172.16186523 20.98706055 C159.00468893 28.06106334 145.92577415 35.25346735 132.9375 42.6328125 C126.32821039 46.38748007 119.69623987 50.10128715 113.0625 53.8125 C111.95914307 54.42988037 110.85578613 55.04726074 109.71899414 55.68334961 C107.1462125 57.12262062 104.57322977 58.56153038 102 60 C105.45516509 62.88213645 108.95238033 65.26424113 112.84765625 67.51171875 C113.40770859 67.83690994 113.96776093 68.16210114 114.54478455 68.49714661 C115.75148729 69.197643 116.95916551 69.89646123 118.16772461 70.59375 C121.44175508 72.48366837 124.70744618 74.38786271 127.97265625 76.29296875 C128.64390533 76.68447113 129.31515442 77.07597351 130.00674438 77.4793396 C136.7210865 81.40485084 143.36449482 85.44312393 150 89.5 C160.82525903 96.11510555 171.7312056 102.57914799 182.70703125 108.94140625 C184.9581834 110.25088293 187.19473999 111.58577223 189.41601562 112.9453125 C191.99962007 114.49445239 194.61368734 115.72615185 197.38085938 116.9140625 C201.84184318 118.98122773 205.97959726 121.00875352 209 125 C211.5400997 132.37112179 210.50293041 140.48615131 210 148.125 C209.91965075 150.24712745 209.84666265 152.36954714 209.78125 154.4921875 C209.61930045 159.67457309 209.30718936 164.8161795 209 170 C196.46 170 183.92 170 171 170 C171.4125 166.555625 171.825 163.11125 172.25 159.5625 C172.35695045 153.67273474 171.81230861 148.9202695 167.65576172 144.51611328 C160.95009393 139.4827313 153.44571407 135.79298332 145.97021484 132.05029297 C140.20147805 129.12643195 134.7475806 125.69661251 129.26165771 122.28042603 C126.36365405 120.48251512 123.44514206 118.71866165 120.52734375 116.953125 C119.42503418 116.28474609 118.32272461 115.61636719 117.18701172 114.92773438 C111.7445519 111.63574244 106.29025195 108.36350015 100.828125 105.10424805 C94.17882323 101.13039168 87.5995953 97.06128942 81 93 C81 104.88 81 116.76 81 129 C68.46 129 55.92 129 43 129 C43 117.12 43 105.24 43 93 C30.09697454 100.27862975 17.21252034 107.58730859 4.3572998 114.94992065 C-5.22155735 120.43389719 -14.83459141 125.85409514 -24.47998047 131.22045898 C-30.5743066 134.61675991 -36.59991428 138.10746004 -42.58398438 141.69506836 C-45 143 -45 143 -47 143 C-47.33 150.92 -47.66 158.84 -48 167 C-61.04253231 167.10603685 -73.97821117 166.71915205 -87 166 C-87.07773466 159.39255415 -87.07773466 159.39255415 -87.01098633 156.3034668 C-86.9118357 151.22937274 -87.15155653 146.36566563 -87.7265625 141.3203125 C-88.31730078 134.3129682 -88.75133591 127.60578657 -86 121 C-79.90111352 114.39765825 -71.01757815 111.1928945 -62.88867188 107.72900391 C-57.13951258 105.23771349 -51.74467679 102.11501121 -46.30426025 99.02105713 C-43.28286919 97.31120797 -40.23781456 95.64454862 -37.1953125 93.97265625 C-26.93629598 88.31599089 -16.69954786 82.61916787 -6.46142578 76.92480469 C-0.85758973 73.80866395 4.74773036 70.6951952 10.35296631 67.58157349 C13.24969296 65.97245759 16.1463273 64.36317553 19.04296875 62.75390625 C20.6953125 61.8359375 22.34765625 60.91796875 24 60 C20.58526573 57.15626812 17.13683693 54.7840573 13.29296875 52.55859375 C12.16375 51.90133301 11.03453125 51.24407227 9.87109375 50.56689453 C9.27151855 50.22031799 8.67194336 49.87374146 8.05419922 49.5166626 C4.82688254 47.65090971 1.60739554 45.77171454 -1.61328125 43.89453125 C-2.28855865 43.50142761 -2.96383606 43.10832397 -3.65957642 42.70330811 C-11.63393592 38.05702611 -19.5673441 33.34200731 -27.5 28.625 C-28.88386147 27.80263789 -30.2677317 26.98029053 -31.65161133 26.15795898 C-35.10205814 24.10695478 -38.55203606 22.05517671 -42 20 C-43.43762695 19.20021729 -43.43762695 19.20021729 -44.90429688 18.38427734 C-45.59587891 17.92746582 -46.28746094 17.4706543 -47 17 C-47 16.34 -47 15.68 -47 15 C-45.40236082 14.13408308 -43.80469969 13.26820667 -42.20703125 12.40234375 C-41.19012207 11.85046387 -40.17321289 11.29858398 -39.12548828 10.72998047 C-36.91186963 9.53231001 -34.69537296 8.33994412 -32.47607422 7.15283203 C-25.56441564 3.45865953 -25.56441564 3.45865953 -18.86328125 -0.59765625 C-17.79464844 -1.26667969 -16.72601563 -1.93570313 -15.625 -2.625 C-14.75101562 -3.21539062 -13.87703125 -3.80578125 -12.9765625 -4.4140625 C-7.93437764 -5.40661858 -4.26727158 -2.52027325 0 0 Z " fill="#669DF6" transform="translate(195,47)"/>
<path d="M0 0 C0.16273674 29.68067854 -0.3030011 59.32776121 -1 89 C-7.27 89 -13.54 89 -20 89 C-20 77.12 -20 65.24 -20 53 C-32.90302546 60.27862975 -45.78747966 67.58730859 -58.6427002 74.94992065 C-68.22155735 80.43389719 -77.83459141 85.85409514 -87.47998047 91.22045898 C-93.5743066 94.61675991 -99.59991428 98.10746004 -105.58398438 101.69506836 C-108 103 -108 103 -110 103 C-110.33 110.92 -110.66 118.84 -111 127 C-124.04253231 127.10603685 -136.97821117 126.71915205 -150 126 C-150.07773466 119.39255415 -150.07773466 119.39255415 -150.01098633 116.3034668 C-149.9118357 111.22937274 -150.15155653 106.36566563 -150.7265625 101.3203125 C-151.31730078 94.3129682 -151.75133591 87.60578657 -149 81 C-142.90111352 74.39765825 -134.01757815 71.1928945 -125.88867188 67.72900391 C-120.13951258 65.23771349 -114.74467679 62.11501121 -109.30426025 59.02105713 C-106.28286919 57.31120797 -103.23781456 55.64454862 -100.1953125 53.97265625 C-93.24739356 50.14167963 -86.31005511 46.29170972 -79.375 42.4375 C-78.27841064 41.82841797 -77.18182129 41.21933594 -76.05200195 40.59179688 C-70.90196845 37.73003625 -65.75430388 34.86417713 -60.61300659 31.98675537 C-38.9335137 19.85517649 -38.9335137 19.85517649 -28.5546875 14.82421875 C-20.85830115 10.87453477 -13.41245793 6.44638976 -5.93261719 2.10400391 C-2.24944715 0 -2.24944715 0 0 0 Z " fill="#ADCBFA" transform="translate(258,87)"/>
<path d="M0 0 C12.54 0 25.08 0 38 0 C37.731875 3.361875 37.46375 6.72375 37.1875 10.1875 C37.21161887 15.19253184 37.39129079 19.96815391 40.59277344 24.01171875 C45.36896566 27.96538293 51.00962432 30.54512444 56.55371094 33.24902344 C62.42120086 36.23015391 68.0072209 39.68003728 73.63882446 43.08013916 C76.37355099 44.7251873 79.12118755 46.34798559 81.86878967 47.97140503 C92.99865704 54.551391 104.00530343 61.32567161 114.98583984 68.15161133 C119.30435172 70.7998742 123.65606905 73.39364143 128 76 C128 64.12 128 52.24 128 40 C134.27 40 140.54 40 147 40 C147.1693401 70.01082811 146.64604354 99.99662668 146 130 C138.34349456 125.88274301 130.80523116 121.59480975 123.3125 117.1875 C116.66038232 113.28681099 110.00115751 109.41408735 103.25 105.6875 C95.37179362 101.31664266 87.70427067 96.5985959 80.01712036 91.90341187 C70.62963305 86.17165846 61.18556829 80.54652118 51.6875 75 C50.75857437 74.45730972 50.75857437 74.45730972 49.81088257 73.90365601 C48.00025705 72.84586999 46.18958952 71.78815592 44.37890625 70.73046875 C40.79761815 68.63849073 37.21772476 66.54477084 33.65234375 64.42578125 C33.04825684 64.06830811 32.44416992 63.71083496 31.82177734 63.3425293 C30.1397926 62.32147985 28.49323313 61.24280778 26.84765625 60.1640625 C23.70101139 58.21701575 20.49109352 57.09706221 16.99609375 55.8984375 C10.01280688 53.1427271 4.02062774 50.60851726 0 44 C-3.65050933 30.1209769 -1.24463553 14.05776743 0 0 Z " fill="#ADCAFA" transform="translate(108,296)"/>
<path d="M0 0 C8.68281321 4.02374271 16.81055523 8.78595806 24.96777344 13.77246094 C26.59254653 14.76336251 28.22589901 15.74037272 29.86865234 16.70117188 C32 18 32 18 34.875 20.23046875 C40.47768575 21.61013012 44.87419513 17.92262309 49.625 15.125 C50.70297852 14.52324951 51.78095703 13.92149902 52.89160156 13.30151367 C57.31856036 10.81294094 61.68465667 8.30800403 65.8203125 5.35546875 C68.60937302 3.41056388 70.7630713 2.01532399 74 1 C76.7421875 1.8515625 76.7421875 1.8515625 79.625 3.4375 C81.20619629 4.29565308 81.20619629 4.29565308 82.81933594 5.17114258 C84.39376465 6.076427 84.39376465 6.076427 86 7 C86.92329102 7.52940186 87.84658203 8.05880371 88.79785156 8.60424805 C91.63427025 10.26884769 94.44386202 11.97237799 97.25 13.6875 C99.41616127 14.99953269 101.58285664 16.31068385 103.75 17.62109375 C104.31841614 17.96540436 104.88683228 18.30971497 105.47247314 18.66445923 C113.03595589 23.24161694 120.64509794 27.74213888 128.25 32.25 C130.3214357 33.47840055 132.39279951 34.70692218 134.46411133 35.93553162 C135.70699799 36.67267359 136.94999142 37.4096356 138.19311523 38.14637756 C139.795977 39.09662956 141.39801488 40.04827086 143 41 C143.96131836 41.53463867 144.92263672 42.06927734 145.91308594 42.62011719 C146.60176758 43.07547852 147.29044922 43.53083984 148 44 C148 44.66 148 45.32 148 46 C147.29504395 46.39268066 146.59008789 46.78536133 145.86376953 47.18994141 C142.6165818 48.99996267 139.37078565 50.81246577 136.125 52.625 C135.01640625 53.24246094 133.9078125 53.85992187 132.765625 54.49609375 C131.12207031 55.41455078 131.12207031 55.41455078 129.4453125 56.3515625 C128.35766602 56.95774414 127.27001953 57.56392578 126.14941406 58.18847656 C122.41315408 60.33755013 118.7985555 62.65112532 115.21435547 65.04443359 C112.30991158 66.2977956 110.98427688 65.98113212 108 65 C105.46166992 63.71923828 105.46166992 63.71923828 102.73046875 62.0703125 C101.69204834 61.44882324 100.65362793 60.82733398 99.58374023 60.18701172 C98.46298096 59.50654785 97.34222168 58.82608398 96.1875 58.125 C95.00574997 57.41476097 93.8235292 56.70530469 92.64086914 55.99658203 C90.10578419 54.47660405 87.57282523 52.95316114 85.04101562 51.42773438 C78.72280688 47.62600217 72.37472958 43.87443983 66.03091431 40.11566162 C63.33105701 38.51559167 60.63189562 36.91435778 57.93391418 35.31112671 C56.67982199 34.56689558 55.42463136 33.82451178 54.16825867 33.08413696 C51.42072436 31.46147064 48.70511956 29.80967028 46.02392578 28.07910156 C45.15106934 27.51932617 44.27821289 26.95955078 43.37890625 26.3828125 C42.64357666 25.89441895 41.90824707 25.40602539 41.15063477 24.90283203 C38.31141125 23.71093187 36.90883766 24.07290854 34 25 C31.67216036 26.06874636 31.67216036 26.06874636 29.359375 27.44921875 C28.46653809 27.9604126 27.57370117 28.47160645 26.65380859 28.99829102 C25.69555176 29.55572998 24.73729492 30.11316895 23.75 30.6875 C21.67484951 31.8782498 19.59931526 33.06833103 17.5234375 34.2578125 C16.44932617 34.8755957 15.37521484 35.49337891 14.26855469 36.12988281 C7.95703958 39.74104249 1.59897437 43.26950365 -4.75585938 46.80371094 C-9.89791513 49.67170625 -15.00812654 52.57887738 -20.0703125 55.5859375 C-21.02856934 56.15046631 -21.98682617 56.71499512 -22.97412109 57.29663086 C-24.77862772 58.36330536 -26.57630078 59.44165608 -28.36572266 60.53344727 C-29.16800293 61.00580811 -29.9702832 61.47816895 -30.796875 61.96484375 C-31.49135742 62.3837085 -32.18583984 62.80257324 -32.90136719 63.23413086 C-35.73383367 64.26780319 -37.1353309 63.92068178 -40 63 C-42.09966496 61.91933352 -44.15829167 60.75729344 -46.18359375 59.54296875 C-46.76158218 59.19873367 -47.33957062 58.8544986 -47.93507385 58.49983215 C-49.77336015 57.40247948 -51.60531961 56.29501022 -53.4375 55.1875 C-54.66433517 54.45444452 -55.89154548 53.72201648 -57.11914062 52.99023438 C-60.42480804 51.0125187 -63.72463303 49.02773174 -67 47 C-67.56993683 46.65039215 -68.13987366 46.3007843 -68.7270813 45.94058228 C-70.18763475 45.01526486 -71.59897233 44.01318813 -73 43 C-73 42.34 -73 41.68 -73 41 C-72.45400146 40.70456299 -71.90800293 40.40912598 -71.34545898 40.10473633 C-59.84060471 33.87229267 -48.38785159 27.55919647 -37.01098633 21.09594727 C-31.54939425 17.9965761 -26.07487885 14.92243763 -20.58203125 11.87890625 C-19.95986221 11.53409714 -19.33769318 11.18928802 -18.69667053 10.83403015 C-15.63883872 9.14019856 -12.57957719 7.44899884 -9.51879883 5.76049805 C-8.42204834 5.15375244 -7.32529785 4.54700684 -6.1953125 3.921875 C-5.21578613 3.38143555 -4.23625977 2.84099609 -3.22705078 2.28417969 C-1.0987805 1.18522798 -1.0987805 1.18522798 0 0 Z " fill="#4285F4" transform="translate(216,404)"/>
<path d="M0 0 C0.71365723 0.40943848 1.42731445 0.81887695 2.16259766 1.24072266 C4.33429762 2.50818985 6.48054119 3.81199983 8.625 5.125 C10.35361777 6.1727811 12.08282992 7.21958197 13.8125 8.265625 C14.77414063 8.84763672 15.73578125 9.42964844 16.7265625 10.02929688 C23.33980009 14.01065531 29.98486174 17.93873075 36.625 21.875 C38.67115184 23.08819765 40.71724269 24.30149457 42.76278687 25.51571655 C44.05805515 26.28344919 45.35444043 27.04930084 46.65200806 27.81314087 C49.47171876 29.47652051 52.25447636 31.16405832 55.00683594 32.93847656 C55.87856445 33.49760742 56.75029297 34.05673828 57.6484375 34.6328125 C58.74551025 35.36201904 58.74551025 35.36201904 59.86474609 36.10595703 C62.69340053 37.29033075 64.10264932 36.92168 67 36 C69.32783964 34.93125364 69.32783964 34.93125364 71.640625 33.55078125 C72.53346191 33.0395874 73.42629883 32.52839355 74.34619141 32.00170898 C75.30444824 31.44427002 76.26270508 30.88683105 77.25 30.3125 C79.32515049 29.1217502 81.40068474 27.93166897 83.4765625 26.7421875 C84.55067383 26.1244043 85.62478516 25.50662109 86.73144531 24.87011719 C93.04296042 21.25895751 99.40102563 17.73049635 105.75585938 14.19628906 C110.89791513 11.32829375 116.00812654 8.42112262 121.0703125 5.4140625 C122.02856934 4.84953369 122.98682617 4.28500488 123.97412109 3.70336914 C125.77862772 2.63669464 127.57630078 1.55834392 129.36572266 0.46655273 C130.56914307 -0.24198853 130.56914307 -0.24198853 131.796875 -0.96484375 C132.49135742 -1.3837085 133.18583984 -1.80257324 133.90136719 -2.23413086 C136.74505606 -3.27189866 138.12423612 -2.93597975 141 -2 C143.18686281 -0.8370945 145.32951593 0.41050629 147.4375 1.7109375 C148.04005615 2.0797403 148.6426123 2.44854309 149.26342773 2.82852173 C151.17999789 4.00372725 153.09003094 5.189103 155 6.375 C156.28342955 7.16475296 157.56727991 7.95382249 158.8515625 8.7421875 C161.21752788 10.19548197 163.5803646 11.65342508 165.94140625 13.11474609 C167.90416398 14.32454935 169.89012138 15.49792288 171.90234375 16.62353516 C172.94068359 17.30488525 172.94068359 17.30488525 174 18 C174 18.66 174 19.32 174 20 C173.39341553 20.32572998 172.78683105 20.65145996 172.16186523 20.98706055 C160.90603846 27.03879598 149.67985431 33.13435715 138.5625 39.4375 C137.63695312 39.95997314 136.71140625 40.48244629 135.7578125 41.02075195 C130.55271725 43.96425834 125.37310241 46.9466366 120.2109375 49.96484375 C117.95317215 51.26831085 115.6953607 52.57169809 113.4375 53.875 C112.3844165 54.50075928 111.33133301 55.12651855 110.24633789 55.77124023 C109.25625732 56.33915283 108.26617676 56.90706543 107.24609375 57.4921875 C106.37654053 58.00120605 105.5069873 58.51022461 104.61108398 59.03466797 C101.26397367 60.27211296 99.41800247 59.94660541 96 59 C93.45800781 57.78833008 93.45800781 57.78833008 90.953125 56.26953125 C89.5609375 55.43518555 89.5609375 55.43518555 88.140625 54.58398438 C87.18671875 53.99939453 86.2328125 53.41480469 85.25 52.8125 C84.3115625 52.24724609 83.373125 51.68199219 82.40625 51.09960938 C80.53207962 49.96967102 78.6602968 48.83576233 76.79101562 47.69775391 C72.53946433 45.11156709 68.26888521 42.55745032 64 40 C64 43.96 64 47.92 64 52 C63.67 52 63.34 52 63 52 C63 48.04 63 44.08 63 40 C59.24863506 42.01833146 55.49896386 44.0397174 51.75 46.0625 C50.65002686 46.65361572 49.55005371 47.24473145 48.41674805 47.85375977 C41.87114855 51.38719065 35.47413891 55.01328131 29.26953125 59.12109375 C27 60 27 60 24.75585938 59.28515625 C21.58624665 57.80705194 18.63847587 56.11240933 15.63671875 54.31640625 C15.01979156 53.94873642 14.40286438 53.58106659 13.76724243 53.20225525 C11.73866719 51.99230896 9.71311238 50.77739879 7.6875 49.5625 C6.27195311 48.71707176 4.85617807 47.87202541 3.44018555 47.02734375 C0.47715428 45.25943188 -2.48487041 43.48984995 -5.44628906 41.71923828 C-12.14869426 37.71416883 -18.86518193 33.73282345 -25.58065796 29.74972534 C-28.93318686 27.7610901 -32.28503555 25.77131019 -35.63671875 23.78125 C-37.30287231 22.7922168 -37.30287231 22.7922168 -39.00268555 21.78320312 C-39.99179932 21.19474609 -40.98091309 20.60628906 -42 20 C-42.95624268 19.46826172 -43.91248535 18.93652344 -44.89770508 18.38867188 C-45.5914624 17.93041016 -46.28521973 17.47214844 -47 17 C-47 16.34 -47 15.68 -47 15 C-45.40236082 14.13408308 -43.80469969 13.26820667 -42.20703125 12.40234375 C-41.19012207 11.85046387 -40.17321289 11.29858398 -39.12548828 10.72998047 C-36.91186963 9.53231001 -34.69537296 8.33994412 -32.47607422 7.15283203 C-25.56441564 3.45865953 -25.56441564 3.45865953 -18.86328125 -0.59765625 C-17.79464844 -1.26667969 -16.72601563 -1.93570313 -15.625 -2.625 C-14.75101563 -3.21539062 -13.87703125 -3.80578125 -12.9765625 -4.4140625 C-7.93437764 -5.40661858 -4.26727158 -2.52027325 0 0 Z " fill="#669DF6" transform="translate(195,47)"/>
<path d="M0 0 C13.25777087 6.14384504 25.92741922 13.78120722 38 22 C33.24116938 26.25843856 27.73008189 28.97256717 22.125 31.9375 C13.80305348 36.39209606 5.52438778 40.90792313 -2.6875 45.5625 C-3.62303711 46.09045166 -4.55857422 46.61840332 -5.52246094 47.16235352 C-10.35655859 49.89897413 -15.15998865 52.67860429 -19.93359375 55.51953125 C-20.88983643 56.082771 -21.8460791 56.64601074 -22.83129883 57.22631836 C-24.6496772 58.29942062 -26.46116709 59.38431091 -28.2644043 60.48266602 C-29.0769165 60.96018311 -29.88942871 61.4377002 -30.7265625 61.9296875 C-31.43377441 62.35491699 -32.14098633 62.78014648 -32.86962891 63.21826172 C-35.72341361 64.26545615 -37.11320245 63.93177183 -40 63 C-42.09966496 61.91933352 -44.15829167 60.75729344 -46.18359375 59.54296875 C-46.76158218 59.19873367 -47.33957062 58.8544986 -47.93507385 58.49983215 C-49.77336015 57.40247948 -51.60531961 56.29501022 -53.4375 55.1875 C-54.66433517 54.45444452 -55.89154548 53.72201648 -57.11914062 52.99023438 C-60.42480804 51.0125187 -63.72463303 49.02773174 -67 47 C-67.56993683 46.65039215 -68.13987366 46.3007843 -68.7270813 45.94058228 C-70.18763475 45.01526486 -71.59897233 44.01318813 -73 43 C-73 42.34 -73 41.68 -73 41 C-72.45400146 40.70456299 -71.90800293 40.40912598 -71.34545898 40.10473633 C-59.84060471 33.87229267 -48.38785159 27.55919647 -37.01098633 21.09594727 C-31.54939425 17.9965761 -26.07487885 14.92243763 -20.58203125 11.87890625 C-19.95986221 11.53409714 -19.33769318 11.18928802 -18.69667053 10.83403015 C-15.63883872 9.14019856 -12.57957719 7.44899884 -9.51879883 5.76049805 C-8.42204834 5.15375244 -7.32529785 4.54700684 -6.1953125 3.921875 C-5.21578613 3.38143555 -4.23625977 2.84099609 -3.22705078 2.28417969 C-1.0987805 1.18522798 -1.0987805 1.18522798 0 0 Z " fill="#659DF6" transform="translate(216,404)"/>
<path d="M0 0 C2.18686281 1.1629055 4.32951593 2.41050629 6.4375 3.7109375 C7.04005615 4.0797403 7.6426123 4.44854309 8.26342773 4.82852173 C10.17999789 6.00372725 12.09003094 7.189103 14 8.375 C15.28342955 9.16475296 16.56727991 9.95382249 17.8515625 10.7421875 C20.21752788 12.19548197 22.5803646 13.65342508 24.94140625 15.11474609 C26.90416398 16.32454935 28.89012138 17.49792288 30.90234375 18.62353516 C31.94068359 19.30488525 31.94068359 19.30488525 33 20 C33 20.66 33 21.32 33 22 C32.09012329 22.48859497 32.09012329 22.48859497 31.16186523 22.98706055 C19.90603846 29.03879598 8.67985431 35.13435715 -2.4375 41.4375 C-3.36304688 41.95997314 -4.28859375 42.48244629 -5.2421875 43.02075195 C-10.44728275 45.96425834 -15.62689759 48.9466366 -20.7890625 51.96484375 C-23.04682785 53.26831085 -25.3046393 54.57169809 -27.5625 55.875 C-28.6155835 56.50075928 -29.66866699 57.12651855 -30.75366211 57.77124023 C-31.74374268 58.33915283 -32.73382324 58.90706543 -33.75390625 59.4921875 C-34.62345947 60.00120605 -35.4930127 60.51022461 -36.38891602 61.03466797 C-39.73473003 62.27163371 -41.58317264 61.9444616 -45 61 C-47.52612305 59.80419922 -47.52612305 59.80419922 -50.01171875 58.3046875 C-50.93001465 57.75643311 -51.84831055 57.20817871 -52.79443359 56.64331055 C-54.22650146 55.76799683 -54.22650146 55.76799683 -55.6875 54.875 C-56.66541504 54.2869458 -57.64333008 53.6988916 -58.65087891 53.09301758 C-65.16369749 49.16286843 -71.64462858 45.18116541 -78 41 C-73.21304723 36.70824924 -67.64303709 33.9837464 -62 31 C-54.08632583 26.76567355 -46.21868031 22.47343049 -38.4375 18 C-37.60089844 17.52151611 -36.76429688 17.04303223 -35.90234375 16.55004883 C-31.16822198 13.83794191 -26.45537505 11.09254868 -21.75390625 8.32421875 C-19.66937554 7.11179913 -17.58474235 5.89955568 -15.5 4.6875 C-14.03904907 3.81448242 -14.03904907 3.81448242 -12.54858398 2.92382812 C-11.63536377 2.39595703 -10.72214355 1.86808594 -9.78125 1.32421875 C-8.97751953 0.85072998 -8.17378906 0.37724121 -7.34570312 -0.1105957 C-4.33726918 -1.25128314 -3.04203125 -1.02494545 0 0 Z " fill="#4285F4" transform="translate(336,45)"/>
<path d="M0 0 C5.62794181 3.49046088 9.84511309 8.93377677 11.93359375 15.19921875 C12.54599447 23.10019194 13.10707089 30.75759123 7.93359375 37.19921875 C2.07104805 43.35550369 -3.18791068 46.41056159 -11.671875 47.15625 C-18.61700718 47.28087717 -23.89280017 45.3554716 -29.2734375 40.984375 C-34.57966893 35.70126441 -37.20176014 29.97326989 -37.31640625 22.51171875 C-37.21766715 15.06140467 -36.01217874 10.01412684 -30.94140625 4.44921875 C-22.0434385 -3.68553419 -10.85408814 -5.51410895 0 0 Z " fill="#AECBFA" transform="translate(399.06640625,234.80078125)"/>
<path d="M0 0 C5.29652665 3.2700295 9.75903349 8.44162776 11.96484375 14.29296875 C13.51513559 21.3269375 13.67427659 29.26749369 9.90234375 35.58984375 C5.65574288 40.94622297 0.38291123 46.3262342 -6.5625 47.4375 C-15.64339493 48.3185884 -21.58949845 46.37609183 -29.3125 41.8125 C-34.53609868 36.29870139 -36.87628958 30.46066782 -37.125 22.875 C-36.7485319 14.66027298 -34.71186469 9.10359755 -28.625 3.5 C-21.11567583 -2.81499826 -9.00872396 -4.0678928 0 0 Z " fill="#AECBFA" transform="translate(137.5625,230.5625)"/>
<path d="M0 0 C5.05377064 4.62879447 8.5973223 9.90051729 9.28125 16.86328125 C9.5574497 26.10446273 7.37071302 32.38096378 1.08203125 39.19921875 C-4.160435 43.73350945 -10.82117346 45.75626082 -17.7109375 45.37890625 C-25.83105505 44.03479123 -31.98490504 40.51962345 -37 34 C-41.075095 27.5587208 -40.74851098 20.43348834 -40 13 C-38.29736713 6.3179691 -33.59913152 1.77592677 -28 -2 C-19.10756328 -6.73937562 -8.16662261 -5.9279651 0 0 Z " fill="#AECBFA" transform="translate(273,193)"/>
<path d="M0 0 C4.99352618 3.41710277 8.80468834 7.95996252 11.640625 13.27734375 C13.13015633 22.77310596 12.7830496 30.40846847 7.140625 38.46484375 C3.00208166 43.08048458 -2.29132098 46.15432741 -8.4453125 46.8984375 C-17.195363 46.90745817 -23.36185175 46.75630518 -29.8203125 40.59375 C-36.14086489 33.77013324 -37.39536865 28.31036926 -37.23046875 19.046875 C-36.58116582 12.77939299 -34.45727016 8.02539751 -29.95703125 3.58984375 C-21.24687326 -3.36490812 -10.14709944 -5.12830025 0 0 Z " fill="#AECBFA" transform="translate(267.859375,276.53515625)"/>
</svg>
