<?xml version="1.0" encoding="UTF-8"?> <svg xmlns="http://www.w3.org/2000/svg" id="Layer_1" data-name="Layer 1" viewBox="0 0 120 135"><defs><style>.cls-1{fill:#326dea;}.cls-2{fill:#fff;}</style></defs><title>01_INSTANA_IconSet</title><path class="cls-1" d="M52,4.64,9.56,29.15A16,16,0,0,0,1.57,43V92a16,16,0,0,0,8,13.84L52,130.36a16,16,0,0,0,16,0l42.45-24.51a16,16,0,0,0,8-13.84V43a16,16,0,0,0-8-13.84L68,4.64A16,16,0,0,0,52,4.64Z"></path><path class="cls-2" d="M85.84,50.32l-23.9-13.8a3.91,3.91,0,0,0-3.89,0L34.14,50.32a3.93,3.93,0,0,0-2,3.38V81.3a3.89,3.89,0,0,0,2,3.38l23.91,13.8a3.92,3.92,0,0,0,3.9,0l23.91-13.8a3.93,3.93,0,0,0,2-3.38V53.7A4,4,0,0,0,85.84,50.32ZM60,93.49,39,81.39l9.35-5.55,10.32,6V68.61L47.3,62V73l-9.81,5.84V54.51l21-12.13v11.7L48.58,59.8,60,66.39,71.4,59.8l-9.9-5.72V42.38l21,12.13V78.73L72.69,72.9V62L61.27,68.61V81.79l10.38-6L81,81.36Z"></path></svg> 